<svg width="194" height="110" viewBox="0 0 194 110" fill="none" xmlns="http://www.w3.org/2000/svg">
<path d="M31.0995 17.1402C28.182 18.077 24.9754 17.6199 22.7093 15.9935C21.4177 15.068 20.3138 15.4895 19.8932 17.069C17.9726 24.2057 9.06802 27.5989 2.79745 23.5837C2.09529 23.149 1.41942 23.1228 0.781098 23.6811C0.142776 24.2395 0.0639244 24.9177 0.435653 25.6541C0.58639 25.943 0.764962 26.2166 0.96884 26.471C7.85896 35.1591 16.818 39.8207 27.9436 40.2254C31.8993 40.3678 35.7499 39.6896 39.6605 38.4642C40.2425 39.9388 40.787 41.3609 41.3652 42.7736C41.8797 44.0477 42.7076 44.5198 43.6613 44.1189C44.5775 43.7329 44.8385 42.8692 44.3691 41.6457C43.8228 40.2161 43.2427 38.7977 42.6682 37.3213C42.9498 37.1508 43.0437 37.0796 43.1525 37.0271C52.0928 32.679 58.1306 25.7933 61.2659 16.3701C62.841 11.6261 63.2785 6.7452 62.7227 1.77254C62.6082 0.749527 62.1107 0.0337935 61.0856 0.00194144C60.0606 -0.0299106 59.6569 0.73079 59.3697 1.69947C59.0336 2.83677 58.5849 4.03029 57.8677 4.95212C55.1661 8.42025 51.4845 10.011 47.1345 9.72618C45.6664 9.63249 44.1213 9.05916 42.8165 8.33031C41.0742 7.35227 40.1599 7.6127 39.6868 9.53319C38.9359 12.5535 34.6047 16.091 31.1014 17.1383" fill="#D2B3E5"/>
<path d="M36.7975 31.8991L41.0724 41.9624C44.0162 48.8887 46.9574 55.8162 49.8962 62.745C50.1052 63.2257 50.2589 63.7286 50.3543 64.2439C50.5148 65.2082 50.3404 66.1983 49.86 67.0501C49.3796 67.902 48.6221 68.5646 47.7128 68.928C46.8195 69.2836 45.8316 69.3255 44.9112 69.047C43.9908 68.7686 43.1926 68.1861 42.6475 67.3954C42.2213 66.7639 41.936 66.0388 41.5905 65.3549C41.1568 64.4968 40.4509 64.1858 39.5761 64.5305C38.7012 64.8753 38.4252 65.6322 38.6561 66.5222C38.8008 66.9858 38.9841 67.4364 39.2043 67.8694C40.9372 71.7104 45.2271 73.4285 49.0495 71.8209C49.9599 71.4428 50.7861 70.8882 51.4803 70.1892C52.1744 69.4903 52.7228 68.6609 53.0937 67.749C53.4645 66.8372 53.6505 65.861 53.6408 64.8769C53.6311 63.8929 53.4259 62.9205 53.0372 62.0161C49.134 52.6872 45.1708 43.3827 41.2319 34.0669C40.7476 32.924 40.2619 31.7804 39.7751 30.6362L36.7975 31.8991Z" fill="#D2B3E5"/>
<path d="M81.8386 11.4986V10.5486C81.8386 6.75076 83.4907 5.69964 86.4458 5.69964H87.9984V0.290416C87.9984 0.213393 87.9677 0.139526 87.9132 0.0850627C87.8586 0.0305992 87.7846 0 87.7074 0H85.9445C79.7847 0 75.9285 2.94913 75.9285 10.1458V11.4967H71.9352C71.9079 11.4965 71.8809 11.5016 71.8556 11.5119C71.8303 11.5221 71.8073 11.5372 71.788 11.5564C71.7686 11.5756 71.7532 11.5984 71.7427 11.6235C71.7322 11.6486 71.7268 11.6756 71.7268 11.7028V17.187C71.7266 17.2145 71.7318 17.2417 71.7421 17.2671C71.7525 17.2926 71.7678 17.3157 71.7872 17.3353C71.8066 17.3548 71.8296 17.3703 71.855 17.3808C71.8804 17.3914 71.9077 17.3968 71.9352 17.3968H75.9341V36.2813C75.9339 36.3086 75.939 36.3356 75.9493 36.3608C75.9596 36.386 75.9747 36.409 75.9939 36.4283C76.0131 36.4476 76.036 36.463 76.0612 36.4734C76.0863 36.4839 76.1133 36.4893 76.1406 36.4893H81.6358C81.6632 36.4893 81.6903 36.4839 81.7156 36.4735C81.7409 36.463 81.7638 36.4477 81.7832 36.4284C81.8025 36.4091 81.8179 36.3862 81.8284 36.3609C81.8388 36.3357 81.8442 36.3087 81.8442 36.2813V17.3968H86.5378C86.5927 17.3963 86.6452 17.3742 86.6839 17.3353C86.7226 17.2963 86.7443 17.2437 86.7443 17.1889V11.7047C86.7443 11.65 86.7225 11.5976 86.6838 11.559C86.6451 11.5203 86.5925 11.4986 86.5378 11.4986H81.8386Z" fill="#D2B3E5"/>
<path d="M94.5094 7.04871C94.9799 7.05954 95.4478 6.9764 95.8856 6.8042C96.3234 6.632 96.7224 6.3742 97.0589 6.04595C97.3955 5.71771 97.663 5.32562 97.8456 4.89276C98.0282 4.45989 98.1222 3.99497 98.1222 3.52531C98.1222 3.05565 98.0282 2.59073 97.8456 2.15786C97.663 1.72499 97.3955 1.33292 97.0589 1.00467C96.7224 0.676416 96.3234 0.418616 95.8856 0.246415C95.4478 0.0742135 94.9799 -0.00891486 94.5094 0.00191345C93.5871 0.0231394 92.7098 0.403673 92.0651 1.06212C91.4204 1.72058 91.0594 2.60467 91.0594 3.52531C91.0594 4.44595 91.4204 5.33004 92.0651 5.9885C92.7098 6.64695 93.5871 7.02748 94.5094 7.04871Z" fill="#D2B3E5"/>
<path d="M90.5742 17.397H91.5542V36.169C91.5547 36.2539 91.5887 36.3351 91.6488 36.3951C91.7089 36.455 91.7903 36.489 91.8753 36.4894H97.132C97.2174 36.4894 97.2992 36.4557 97.3597 36.3957C97.4202 36.3357 97.4545 36.2542 97.455 36.169V11.8116C97.455 11.7694 97.4466 11.7276 97.4303 11.6886C97.4141 11.6496 97.3903 11.6142 97.3603 11.5844C97.3302 11.5546 97.2946 11.5311 97.2555 11.5151C97.2163 11.4991 97.1744 11.491 97.132 11.4912H90.8971C90.8548 11.491 90.8129 11.4991 90.7737 11.5151C90.7345 11.5311 90.6989 11.5546 90.6689 11.5844C90.6389 11.6142 90.6151 11.6496 90.5988 11.6886C90.5826 11.7276 90.5742 11.7694 90.5742 11.8116V17.397Z" fill="#D2B3E5"/>
<path d="M103.269 36.3578V11.6256C103.269 11.6085 103.273 11.5915 103.279 11.5757C103.286 11.5599 103.296 11.5456 103.308 11.5335C103.32 11.5215 103.335 11.512 103.351 11.5057C103.367 11.4993 103.384 11.4961 103.401 11.4964H109.048C109.065 11.4961 109.082 11.4993 109.098 11.5057C109.114 11.512 109.129 11.5215 109.141 11.5335C109.153 11.5456 109.163 11.5599 109.169 11.5757C109.176 11.5915 109.18 11.6085 109.18 11.6256V14.0089C109.179 14.0348 109.186 14.0603 109.201 14.0819C109.215 14.1034 109.236 14.1199 109.26 14.1292C109.285 14.1384 109.311 14.1399 109.336 14.1335C109.362 14.127 109.384 14.113 109.401 14.0932C111.078 12.2608 113.546 11.0336 116.554 10.9961C116.59 10.9961 116.625 11.0102 116.65 11.0355C116.676 11.0607 116.691 11.095 116.691 11.131V16.5908C116.477 16.5504 116.259 16.5341 116.041 16.5421C112.287 16.5421 109.18 19.1914 109.18 22.9893V36.3578C109.18 36.3926 109.166 36.4259 109.141 36.4505C109.116 36.4751 109.083 36.489 109.048 36.489H103.401C103.384 36.489 103.366 36.4856 103.351 36.479C103.335 36.4724 103.32 36.4627 103.308 36.4505C103.296 36.4384 103.286 36.4239 103.279 36.408C103.273 36.3921 103.269 36.375 103.269 36.3578Z" fill="#D2B3E5"/>
<path d="M120.992 11.4985H125.911C126.042 11.4985 126.168 11.5504 126.26 11.6428C126.353 11.7352 126.405 11.8606 126.405 11.9912V13.063C126.405 13.1561 126.431 13.2474 126.481 13.326C126.532 13.4046 126.603 13.4673 126.688 13.5067C126.772 13.546 126.867 13.5605 126.959 13.5483C127.052 13.536 127.139 13.4977 127.21 13.4377C129.089 11.8625 131.465 10.9998 133.918 11.002C137.459 11.002 140.301 12.514 141.976 15.0996C142.017 15.1664 142.073 15.2225 142.14 15.2633C142.207 15.3041 142.282 15.3284 142.361 15.3343C142.439 15.3402 142.517 15.3274 142.589 15.297C142.662 15.2666 142.726 15.2195 142.776 15.1596C144.937 12.6189 147.499 11.002 151.247 11.002C157.057 11.002 161.064 15.0996 161.064 21.4476V35.9983C161.064 36.1295 161.012 36.2553 160.919 36.3481C160.826 36.4408 160.7 36.493 160.568 36.493H155.649C155.518 36.493 155.392 36.4408 155.299 36.3481C155.206 36.2553 155.154 36.1295 155.154 35.9983V22.6954C155.154 18.4965 152.95 16.548 149.794 16.548C146.39 16.548 143.735 19.0474 143.735 22.8959V35.9964C143.735 36.1276 143.683 36.2534 143.59 36.3462C143.497 36.439 143.371 36.4911 143.24 36.4911H138.321C138.189 36.4911 138.063 36.439 137.97 36.3462C137.877 36.2534 137.825 36.1276 137.825 35.9964V22.6935C137.825 18.4947 135.621 16.5461 132.465 16.5461C129.059 16.5461 126.405 19.0455 126.405 22.9933V35.9946C126.405 36.1254 126.353 36.251 126.26 36.3437C126.168 36.4364 126.042 36.4887 125.911 36.4892H120.992C120.861 36.4892 120.735 36.4371 120.642 36.3443C120.549 36.2516 120.497 36.1257 120.497 35.9946V11.9912C120.497 11.8604 120.55 11.735 120.642 11.6427C120.735 11.5503 120.861 11.4985 120.992 11.4985Z" fill="#D2B3E5"/>
<path d="M177.784 10.9983C180.94 10.9983 183.844 12.6471 185.498 14.5976V12.0494C185.498 11.9033 185.557 11.7632 185.66 11.6599C185.764 11.5566 185.904 11.4986 186.05 11.4986H190.855C190.927 11.4983 190.999 11.5124 191.066 11.5399C191.134 11.5675 191.195 11.6081 191.246 11.6592C191.298 11.7104 191.338 11.7712 191.366 11.8382C191.394 11.9051 191.408 11.9769 191.408 12.0494V35.9384C191.406 36.0839 191.346 36.2227 191.243 36.3254C191.14 36.4281 191 36.4869 190.855 36.4893H188.711C187.861 36.4893 187.046 36.1523 186.445 35.5525C185.844 34.9527 185.506 34.1392 185.506 33.291C183.852 35.3407 180.948 36.9895 177.792 36.9895C170.631 36.9895 165.372 31.1419 165.372 23.9939C165.372 16.846 170.624 10.9983 177.784 10.9983ZM171.461 22.362C171.105 23.8654 171.251 25.4435 171.875 26.8569C172.5 28.2704 173.569 29.4422 174.92 30.1945C176.272 30.9469 177.833 31.2389 179.366 31.0261C180.899 30.8134 182.321 30.1076 183.416 29.0157C184.511 27.9238 185.219 26.5054 185.433 24.9756C185.647 23.4458 185.356 21.888 184.603 20.5383C183.85 19.1887 182.677 18.1209 181.261 17.4969C179.845 16.8728 178.264 16.7265 176.757 17.0802C175.471 17.3843 174.294 18.0393 173.359 18.972C172.424 19.9046 171.767 21.0783 171.461 22.362Z" fill="#D2B3E5"/>
<path d="M72.4704 47.4295H77.7759C77.8561 47.4295 77.933 47.4613 77.9897 47.5179C78.0464 47.5745 78.0782 47.6512 78.0782 47.7312V49.4175C78.0783 49.4765 78.0958 49.5341 78.1286 49.5832C78.1614 49.6323 78.208 49.6707 78.2625 49.6935C78.317 49.7163 78.377 49.7225 78.4351 49.7114C78.4932 49.7003 78.5466 49.6724 78.5889 49.6311C80.5047 47.8934 83.0009 46.9307 85.5898 46.9312C89.2338 46.9312 92.1438 48.535 93.7922 51.2593C93.8159 51.3006 93.8494 51.3355 93.8897 51.3609C93.93 51.3863 93.976 51.4016 94.0235 51.4053C94.0711 51.4089 94.1188 51.401 94.1626 51.3821C94.2064 51.3632 94.2448 51.3339 94.2747 51.2968C96.4713 48.638 99.0715 46.9312 102.911 46.9312C108.731 46.9312 112.728 51.0307 112.728 57.3786V72.1224C112.728 72.162 112.72 72.2012 112.705 72.2378C112.69 72.2744 112.667 72.3077 112.639 72.3357C112.611 72.3637 112.578 72.3859 112.541 72.4011C112.505 72.4162 112.465 72.424 112.426 72.424H107.127C107.088 72.424 107.048 72.4162 107.012 72.4011C106.975 72.3859 106.942 72.3637 106.914 72.3357C106.886 72.3077 106.863 72.2744 106.848 72.2378C106.833 72.2012 106.825 72.162 106.825 72.1224V58.6321C106.825 54.4332 104.621 52.4847 101.467 52.4847C98.0614 52.4847 95.4068 54.9822 95.4068 58.8307V72.1336C95.4068 72.2136 95.3749 72.2903 95.3182 72.3469C95.2616 72.4035 95.1847 72.4353 95.1045 72.4353H89.7989C89.7188 72.4353 89.6419 72.4035 89.5852 72.3469C89.5285 72.2903 89.4967 72.2136 89.4967 72.1336V58.6433C89.4967 54.4445 87.2926 52.4959 84.1385 52.4959C80.7329 52.4959 78.0782 54.9935 78.0782 58.9431V72.1374C78.0782 72.2174 78.0464 72.2941 77.9897 72.3507C77.933 72.4072 77.8561 72.439 77.7759 72.439H72.4704C72.3902 72.439 72.3133 72.4072 72.2566 72.3507C72.1999 72.2941 72.1681 72.2174 72.1681 72.1374V47.7312C72.1681 47.6512 72.1999 47.5745 72.2566 47.5179C72.3133 47.4613 72.3902 47.4295 72.4704 47.4295Z" fill="#D2B3E5"/>
<path d="M129.808 46.9292C136.92 46.9292 141.777 52.1286 141.777 59.5744C141.752 60.4519 141.682 61.3274 141.567 62.1976C141.555 62.3007 141.506 62.396 141.428 62.4652C141.351 62.5343 141.25 62.5725 141.146 62.5723H122.896C123.898 65.6713 126.703 67.5712 130.405 67.5712C132.658 67.5712 134.821 66.8217 136.321 65.3753C136.36 65.3364 136.406 65.3055 136.457 65.2844C136.507 65.2633 136.562 65.2525 136.617 65.2525C136.672 65.2525 136.726 65.2633 136.777 65.2844C136.828 65.3055 136.874 65.3364 136.913 65.3753L140.085 68.5249C140.165 68.6054 140.209 68.7137 140.209 68.8265C140.209 68.9393 140.165 69.0476 140.085 69.1282C137.694 71.5827 134.303 72.9205 130.357 72.9205C122.794 72.9205 117.027 67.2733 117.027 59.9248C117.027 52.5764 122.547 46.9292 129.808 46.9292ZM122.796 57.9837H136.218C135.717 54.435 133.064 52.2354 129.707 52.2354C126.253 52.2279 123.298 54.5268 122.796 57.9762V57.9837Z" fill="#D2B3E5"/>
<path d="M146.082 71.9781V47.8811C146.082 47.8228 146.093 47.765 146.116 47.7112C146.138 47.6573 146.171 47.6083 146.212 47.5671C146.254 47.5259 146.303 47.4931 146.357 47.4708C146.411 47.4485 146.468 47.437 146.527 47.437H151.547C151.665 47.4375 151.778 47.4845 151.861 47.5676C151.944 47.6508 151.992 47.7635 151.992 47.8811V49.1102C151.992 49.194 152.015 49.2761 152.06 49.3469C152.105 49.4177 152.169 49.4742 152.245 49.5097C152.321 49.5452 152.406 49.5582 152.489 49.5471C152.572 49.5361 152.651 49.5015 152.715 49.4475C154.604 47.8276 157.013 46.9369 159.504 46.9368C165.324 46.9368 169.321 51.0363 169.321 57.3842V71.9856C169.321 72.1034 169.274 72.2163 169.19 72.2996C169.107 72.3829 168.994 72.4296 168.876 72.4296H163.855C163.737 72.4296 163.624 72.3829 163.541 72.2996C163.457 72.2163 163.41 72.1034 163.41 71.9856V58.6265C163.41 54.4276 161.206 52.479 158.052 52.479C154.645 52.479 151.992 54.9766 151.992 58.9263V71.9781C151.992 72.0957 151.944 72.2084 151.861 72.2915C151.778 72.3747 151.665 72.4216 151.547 72.4221H146.527C146.409 72.4221 146.296 72.3754 146.212 72.2921C146.129 72.2088 146.082 72.0959 146.082 71.9781Z" fill="#D2B3E5"/>
<path d="M174.962 47.4293C175.696 47.4293 176.4 47.1384 176.919 46.6204C177.438 46.1025 177.73 45.4 177.73 44.6676V41.295C177.73 41.1459 177.789 41.003 177.895 40.8975C178 40.7921 178.143 40.7329 178.293 40.7329H183.078C183.228 40.7329 183.371 40.7921 183.477 40.8975C183.582 41.003 183.642 41.1459 183.642 41.295V46.8672C183.642 47.0163 183.701 47.1593 183.807 47.2647C183.912 47.3701 184.055 47.4293 184.205 47.4293H189.437C189.587 47.4293 189.73 47.4886 189.835 47.594C189.941 47.6994 190 47.8423 190 47.9914V52.7636C190 52.9127 189.941 53.0557 189.835 53.1611C189.73 53.2665 189.587 53.3257 189.437 53.3257H184.205C184.055 53.3257 183.912 53.3849 183.807 53.4903C183.701 53.5957 183.642 53.7387 183.642 53.8878V62.2705C183.642 66.2202 184.242 67.2188 186.645 67.2188C187.546 67.211 188.444 67.12 189.328 66.9471C189.411 66.9309 189.496 66.9333 189.577 66.9542C189.659 66.975 189.735 67.0139 189.799 67.0678C189.863 67.1217 189.915 67.1893 189.95 67.2657C189.985 67.3421 190.002 67.4253 190 67.5092V71.9798C190.001 72.1068 189.959 72.2303 189.881 72.3304C189.802 72.4304 189.692 72.501 189.569 72.5306C188.343 72.7858 187.095 72.9182 185.844 72.9259C180.135 72.9259 177.73 70.3272 177.73 64.0299V53.8916C177.73 53.7425 177.67 53.5995 177.565 53.4941C177.459 53.3887 177.316 53.3295 177.166 53.3295H173.691C173.542 53.3295 173.399 53.2702 173.293 53.1648C173.187 53.0594 173.128 52.9164 173.128 52.7674V47.9933C173.128 47.8442 173.187 47.7012 173.293 47.5958C173.399 47.4904 173.542 47.4312 173.691 47.4312L174.962 47.4293Z" fill="#D2B3E5"/>
<path d="M73.3358 83.415H74.0004C74.1 83.415 74.1955 83.4545 74.2659 83.5248C74.3364 83.5951 74.3759 83.6904 74.3759 83.7898V92.7683C74.3759 92.8677 74.3364 92.963 74.2659 93.0333C74.1955 93.1035 74.1 93.143 74.0004 93.143H73.3452C73.2456 93.143 73.1501 93.1035 73.0797 93.0333C73.0093 92.963 72.9697 92.8677 72.9697 92.7683V83.7916C72.9692 83.6935 73.0073 83.5991 73.0757 83.5287C73.1442 83.4583 73.2376 83.4175 73.3358 83.415Z" fill="#D2B3E5"/>
<path d="M85.7286 83.415H86.3914C86.4886 83.4184 86.5808 83.4594 86.6484 83.5293C86.716 83.5992 86.7538 83.6926 86.7537 83.7898V92.7683C86.7538 92.8654 86.716 92.9588 86.6484 93.0287C86.5808 93.0986 86.4886 93.1396 86.3914 93.143H85.8619C85.7631 93.1431 85.6658 93.119 85.5784 93.073C85.4911 93.0269 85.4163 92.9603 85.3607 92.8788L80.4794 85.9707V92.7683C80.4794 92.8651 80.442 92.9582 80.3747 93.0281C80.3075 93.098 80.2159 93.1391 80.1189 93.143H79.4637C79.3641 93.143 79.2686 93.1035 79.1982 93.0333C79.1278 92.963 79.0882 92.8677 79.0882 92.7683V83.7916C79.0882 83.6922 79.1278 83.5969 79.1982 83.5267C79.2686 83.4564 79.3641 83.4169 79.4637 83.4169H79.9781C80.079 83.4168 80.1785 83.4407 80.2683 83.4867C80.3581 83.5326 80.4356 83.5993 80.4944 83.6811L85.355 90.5761V83.7935C85.3545 83.7441 85.3638 83.6952 85.3823 83.6494C85.4009 83.6036 85.4283 83.5619 85.463 83.5268C85.4977 83.4916 85.5391 83.4636 85.5846 83.4445C85.6302 83.4253 85.6792 83.4153 85.7286 83.415Z" fill="#D2B3E5"/>
<path d="M101.035 88.2809C101.035 91.1289 98.9701 93.3248 96.092 93.3248C93.214 93.3248 91.1338 91.1289 91.1338 88.2809C91.1338 85.433 93.1989 83.2483 96.092 83.2483C98.9851 83.2483 101.035 85.4311 101.035 88.2809ZM99.6291 88.2809C99.6291 86.3904 98.3618 84.5336 96.092 84.5336C93.8222 84.5336 92.5531 86.3829 92.5531 88.2809C92.5531 90.1789 93.8204 92.0282 96.092 92.0282C98.3637 92.0282 99.6253 90.1695 99.6253 88.2809H99.6291Z" fill="#D2B3E5"/>
<path d="M111.988 83.4148H112.797C112.837 83.4147 112.876 83.4245 112.911 83.4432C112.946 83.4619 112.976 83.489 112.998 83.5221C113.02 83.5551 113.033 83.5931 113.037 83.6325C113.041 83.672 113.034 83.7118 113.019 83.7483L109.639 92.8242C109.606 92.9188 109.543 93.0005 109.461 93.058C109.378 93.1154 109.28 93.1457 109.179 93.1446H108.288C108.187 93.1454 108.089 93.115 108.006 93.0576C107.924 93.0002 107.862 92.9187 107.828 92.8242L104.43 83.7483C104.417 83.7105 104.413 83.6703 104.419 83.6309C104.425 83.5915 104.44 83.554 104.463 83.5215C104.486 83.489 104.516 83.4624 104.552 83.4439C104.587 83.4253 104.626 83.4153 104.666 83.4148H105.46C105.565 83.4117 105.668 83.4425 105.753 83.5026C105.839 83.5627 105.903 83.6489 105.935 83.7483L108.733 91.6569L111.532 83.7483C111.562 83.6512 111.623 83.5664 111.705 83.5064C111.787 83.4463 111.886 83.4142 111.988 83.4148Z" fill="#D2B3E5"/>
<path d="M122.708 92.8111L121.998 90.7876H117.821L117.11 92.8036C117.077 92.8999 117.015 92.9837 116.933 93.0434C116.85 93.1031 116.752 93.1359 116.65 93.1371H115.842C115.803 93.1376 115.763 93.1282 115.728 93.1096C115.693 93.091 115.663 93.0639 115.641 93.0307C115.618 92.9975 115.605 92.9593 115.602 92.9196C115.598 92.88 115.605 92.8401 115.621 92.8036L119 83.7277C119.034 83.6331 119.096 83.5513 119.179 83.4939C119.261 83.4364 119.36 83.4062 119.46 83.4073H120.352C120.453 83.4062 120.551 83.4364 120.633 83.4939C120.716 83.5513 120.778 83.6331 120.812 83.7277L124.208 92.8036C124.221 92.8414 124.225 92.8816 124.219 92.921C124.213 92.9604 124.198 92.9978 124.175 93.0303C124.152 93.0628 124.121 93.0895 124.086 93.108C124.051 93.1266 124.012 93.1365 123.972 93.1371H123.189C123.085 93.1393 122.982 93.1091 122.896 93.0507C122.81 92.9923 122.744 92.9085 122.708 92.8111ZM121.554 89.5303L119.909 84.9024L118.279 89.5303H121.554Z" fill="#D2B3E5"/>
<path d="M135.073 90.9901C135.13 90.9223 135.21 90.8787 135.298 90.8682C135.386 90.8578 135.475 90.8813 135.546 90.9339L136.075 91.2824C136.12 91.3123 136.158 91.3515 136.186 91.3972C136.214 91.443 136.232 91.4943 136.239 91.5476C136.245 91.6009 136.24 91.655 136.224 91.7062C136.208 91.7574 136.181 91.8046 136.145 91.8445C135.681 92.3167 135.125 92.6896 134.512 92.9406C133.899 93.1915 133.241 93.3152 132.578 93.304L132.313 93.8324C133.162 93.7481 133.928 94.1247 133.928 95.1252C133.928 95.9721 133.261 96.6241 132.215 96.6241C131.886 96.6257 131.559 96.562 131.254 96.4368C131.221 96.4248 131.191 96.4057 131.166 96.3809C131.141 96.356 131.122 96.3259 131.11 96.2929C131.098 96.2598 131.093 96.2245 131.097 96.1894C131.1 96.1544 131.111 96.1205 131.128 96.0901L131.316 95.7416C131.345 95.6926 131.39 95.655 131.443 95.6349C131.496 95.6148 131.555 95.6134 131.609 95.6311C131.773 95.6957 131.949 95.7288 132.125 95.7285C132.689 95.7285 133.03 95.4362 133.03 95.0053C133.03 94.6175 132.766 94.3945 132.319 94.3945C132.166 94.3931 132.015 94.4211 131.874 94.4769C131.824 94.4914 131.772 94.4913 131.723 94.4767C131.673 94.4621 131.629 94.4335 131.596 94.3945L131.483 94.2408C131.456 94.2035 131.439 94.1596 131.434 94.1135C131.429 94.0674 131.436 94.0209 131.455 93.9785L131.817 93.2553C129.326 92.9218 127.599 90.8645 127.599 88.2658C127.599 85.416 129.673 83.22 132.557 83.22C133.225 83.21 133.888 83.3368 134.505 83.5927C135.121 83.8486 135.679 84.2281 136.143 84.7077C136.179 84.7476 136.206 84.7947 136.222 84.846C136.238 84.8972 136.243 84.9513 136.237 85.0046C136.23 85.0579 136.212 85.1092 136.184 85.1549C136.156 85.2007 136.118 85.2399 136.074 85.2698L135.544 85.6183C135.471 85.665 135.384 85.6849 135.297 85.6747C135.211 85.6644 135.131 85.6246 135.071 85.5621C134.748 85.2301 134.359 84.9681 133.93 84.7924C133.501 84.6167 133.04 84.5311 132.576 84.541C130.304 84.541 129.037 86.3903 129.037 88.2883C129.037 90.1863 130.304 92.0356 132.576 92.0356C133.042 92.0425 133.504 91.9532 133.934 91.7733C134.364 91.5934 134.751 91.3267 135.073 90.9901Z" fill="#D2B3E5"/>
<path d="M147.047 92.8112L146.335 90.7877H142.151L141.441 92.8037C141.408 92.9 141.347 92.9838 141.264 93.0435C141.182 93.1033 141.083 93.136 140.981 93.1373H140.174C140.134 93.1376 140.095 93.1281 140.059 93.1095C140.024 93.0909 139.994 93.0638 139.972 93.0307C139.95 92.9976 139.936 92.9596 139.932 92.9199C139.929 92.8803 139.935 92.8404 139.95 92.8037L143.33 83.7278C143.363 83.6334 143.425 83.5517 143.507 83.4942C143.589 83.4368 143.688 83.4064 143.788 83.4074H144.68C144.78 83.406 144.879 83.4362 144.961 83.4937C145.044 83.5512 145.106 83.6331 145.14 83.7278L148.538 92.8037C148.55 92.8415 148.554 92.8817 148.548 92.9211C148.542 92.9605 148.527 92.998 148.504 93.0305C148.481 93.063 148.451 93.0896 148.416 93.1081C148.38 93.1267 148.341 93.1367 148.301 93.1373H147.52C147.417 93.1385 147.316 93.1077 147.232 93.0494C147.147 92.991 147.082 92.9078 147.047 92.8112ZM146.127 80.9417C146.192 80.9581 146.248 80.9992 146.283 81.0563C146.318 81.1133 146.33 81.1818 146.315 81.2471C146.163 81.9141 145.785 82.2626 145.173 82.2626C144.49 82.2626 144.004 81.8036 143.484 81.8036C143.379 81.8055 143.279 81.8421 143.198 81.9076C143.117 81.9732 143.06 82.0638 143.037 82.1652C143.015 82.219 142.976 82.2643 142.926 82.2943C142.875 82.3244 142.817 82.3375 142.759 82.3319L142.412 82.2626C142.378 82.2576 142.347 82.246 142.318 82.2285C142.289 82.211 142.264 82.188 142.245 82.1607C142.225 82.1335 142.211 82.1026 142.204 82.0699C142.196 82.0372 142.196 82.0033 142.201 81.9703C142.389 81.2752 142.765 80.9548 143.345 80.9548C143.97 80.9548 144.486 81.4138 145.034 81.4138C145.143 81.4194 145.251 81.3861 145.338 81.3198C145.424 81.2536 145.485 81.1587 145.508 81.0522C145.525 80.9944 145.563 80.9452 145.615 80.9143C145.667 80.8834 145.728 80.8731 145.787 80.8855L146.127 80.9417ZM145.891 89.5305L144.248 84.9026L142.618 89.5305H145.891Z" fill="#D2B3E5"/>
<path d="M161.849 88.2809C161.849 91.1289 159.783 93.3248 156.905 93.3248C154.027 93.3248 151.947 91.1289 151.947 88.2809C151.947 85.433 154.012 83.2483 156.905 83.2483C159.798 83.2483 161.849 85.4311 161.849 88.2809ZM160.442 88.2809C160.442 86.3904 159.175 84.5336 156.905 84.5336C154.635 84.5336 153.366 86.3829 153.366 88.2809C153.366 90.1789 154.634 92.0282 156.905 92.0282C159.177 92.0282 160.442 90.1695 160.442 88.2809Z" fill="#D2B3E5"/>
<path d="M80.0757 107.666C80.1328 107.598 80.2134 107.555 80.3012 107.545C80.389 107.534 80.4775 107.557 80.5489 107.61L81.0783 107.956C81.123 107.986 81.1607 108.025 81.1888 108.071C81.217 108.117 81.235 108.168 81.2416 108.221C81.2482 108.275 81.2432 108.329 81.227 108.38C81.2108 108.431 81.1838 108.478 81.1478 108.518C80.6816 108.992 80.1239 109.367 79.5085 109.619C78.8931 109.871 78.2328 109.997 77.5675 109.987C74.6838 109.987 72.6093 107.804 72.6093 104.955C72.6093 102.105 74.6744 99.9088 77.5675 99.9088C78.2332 99.8981 78.8941 100.023 79.5094 100.277C80.1248 100.531 80.6817 100.907 81.1459 101.383C81.1819 101.423 81.209 101.47 81.2252 101.522C81.2414 101.573 81.2463 101.627 81.2397 101.68C81.2331 101.734 81.2151 101.785 81.187 101.831C81.1588 101.876 81.1211 101.916 81.0764 101.945L80.547 102.292C80.474 102.339 80.3869 102.359 80.3007 102.349C80.2144 102.339 80.1343 102.3 80.0739 102.238C79.7492 101.904 79.3589 101.642 78.9276 101.466C78.4963 101.29 78.0332 101.205 77.5675 101.217C75.2977 101.217 74.0305 103.064 74.0305 104.964C74.0305 106.864 75.2977 108.711 77.5675 108.711C78.0353 108.72 78.4998 108.631 78.9316 108.451C79.3634 108.271 79.753 108.004 80.0757 107.666Z" fill="#D2B3E5"/>
<path d="M94.8209 104.954C94.8209 107.804 92.7558 110 89.8777 110C86.9996 110 84.9194 107.804 84.9194 104.954C84.9194 102.105 86.9846 99.9236 89.8777 99.9236C92.7708 99.9236 94.8209 102.106 94.8209 104.954ZM93.4147 104.954C93.4147 103.064 92.1475 101.207 89.8777 101.207C87.6079 101.207 86.3406 103.054 86.3406 104.954C86.3406 106.854 87.6079 108.702 89.8777 108.702C92.1475 108.702 93.4147 106.845 93.4147 104.954Z" fill="#D2B3E5"/>
<path d="M105.751 109.82H104.978C104.865 109.823 104.753 109.792 104.657 109.733C104.561 109.674 104.484 109.588 104.435 109.486L102.582 106.052C102.457 106.065 102.332 106.07 102.207 106.067H100.59V109.44C100.59 109.537 100.553 109.63 100.485 109.7C100.417 109.77 100.325 109.811 100.228 109.814H99.5746C99.475 109.814 99.3795 109.775 99.3091 109.705C99.2387 109.634 99.1991 109.539 99.1991 109.44V100.465C99.1991 100.365 99.2387 100.27 99.3091 100.2C99.3795 100.13 99.475 100.09 99.5746 100.09H102.203C104.431 100.09 105.697 101.402 105.697 103.088C105.71 103.656 105.549 104.214 105.236 104.689C104.923 105.163 104.472 105.531 103.943 105.743L106.008 109.37C106.033 109.416 106.045 109.467 106.044 109.518C106.043 109.57 106.029 109.621 106.003 109.665C105.978 109.71 105.941 109.748 105.897 109.775C105.853 109.802 105.803 109.817 105.751 109.82ZM102.214 104.802C103.551 104.802 104.289 104.12 104.289 103.079C104.289 102.037 103.551 101.355 102.214 101.355H100.598V104.802H102.214Z" fill="#D2B3E5"/>
<path d="M116.945 103.258C116.945 105.038 115.63 106.444 113.436 106.444H111.708V109.441C111.71 109.49 111.702 109.538 111.685 109.584C111.667 109.629 111.641 109.671 111.607 109.706C111.573 109.741 111.533 109.768 111.488 109.787C111.443 109.806 111.395 109.816 111.346 109.816H110.693C110.593 109.816 110.498 109.777 110.427 109.706C110.357 109.636 110.317 109.541 110.317 109.441V100.465C110.317 100.365 110.357 100.27 110.427 100.2C110.498 100.13 110.593 100.09 110.693 100.09H113.436C115.636 100.09 116.945 101.48 116.945 103.258ZM115.525 103.258C115.525 102.119 114.746 101.355 113.436 101.355H111.708V105.162H113.436C114.74 105.162 115.525 104.398 115.525 103.258Z" fill="#D2B3E5"/>
<path d="M130.813 104.954C130.813 107.804 128.748 110 125.87 110C122.992 110 120.911 107.804 120.911 104.954C120.911 102.105 122.977 99.9236 125.87 99.9236C128.763 99.9236 130.813 102.106 130.813 104.954ZM129.407 104.954C129.407 103.064 128.139 101.207 125.87 101.207C123.6 101.207 122.333 103.054 122.333 104.954C122.333 106.854 123.6 108.702 125.87 108.702C128.139 108.702 129.407 106.845 129.407 104.954Z" fill="#D2B3E5"/>
<path d="M141.743 109.82H140.977C140.864 109.823 140.753 109.792 140.657 109.733C140.56 109.674 140.483 109.588 140.435 109.486L138.584 106.052C138.459 106.065 138.333 106.07 138.208 106.067H136.592V109.44C136.592 109.537 136.554 109.63 136.486 109.7C136.419 109.77 136.327 109.811 136.229 109.814H135.58C135.48 109.814 135.385 109.775 135.314 109.705C135.244 109.634 135.204 109.539 135.204 109.44V100.465C135.204 100.365 135.244 100.27 135.314 100.2C135.385 100.13 135.48 100.09 135.58 100.09H138.208C140.437 100.09 141.702 101.402 141.702 103.088C141.715 103.656 141.554 104.214 141.241 104.689C140.928 105.163 140.477 105.531 139.948 105.743L142.014 109.37C142.038 109.417 142.05 109.469 142.049 109.522C142.047 109.574 142.032 109.626 142.005 109.671C141.978 109.716 141.939 109.753 141.894 109.779C141.848 109.806 141.796 109.82 141.743 109.82ZM138.208 104.802C139.545 104.802 140.273 104.12 140.273 103.079C140.273 102.037 139.535 101.355 138.208 101.355H136.592V104.802H138.208Z" fill="#D2B3E5"/>
<path d="M152.813 109.486L152.101 107.463H147.924L147.22 109.486C147.186 109.582 147.124 109.665 147.042 109.725C146.96 109.785 146.861 109.818 146.76 109.82H145.953C145.912 109.822 145.871 109.814 145.834 109.796C145.797 109.779 145.766 109.752 145.742 109.718C145.719 109.685 145.704 109.646 145.7 109.606C145.696 109.565 145.702 109.524 145.718 109.486L149.097 100.411C149.131 100.316 149.194 100.235 149.276 100.177C149.358 100.12 149.457 100.089 149.557 100.09H150.449C150.55 100.089 150.648 100.119 150.73 100.177C150.813 100.234 150.875 100.316 150.909 100.411L154.307 109.486C154.32 109.524 154.323 109.564 154.318 109.604C154.312 109.643 154.297 109.681 154.274 109.713C154.251 109.746 154.22 109.772 154.185 109.791C154.15 109.809 154.11 109.819 154.07 109.82H153.276C153.174 109.818 153.075 109.786 152.992 109.726C152.909 109.666 152.846 109.583 152.813 109.486ZM151.656 106.206L150.013 101.578L148.384 106.206H151.656Z" fill="#D2B3E5"/>
<path d="M163.553 100.465V100.98C163.553 101.079 163.514 101.175 163.443 101.245C163.373 101.315 163.277 101.355 163.178 101.355H161.081V109.443C161.081 109.543 161.041 109.638 160.971 109.708C160.9 109.779 160.805 109.818 160.705 109.818H160.065C159.965 109.818 159.87 109.779 159.8 109.708C159.729 109.638 159.69 109.543 159.69 109.443V101.355H157.6C157.5 101.355 157.405 101.315 157.334 101.245C157.264 101.175 157.224 101.079 157.224 100.98V100.465C157.224 100.365 157.264 100.27 157.334 100.2C157.405 100.13 157.5 100.09 157.6 100.09H163.178C163.277 100.09 163.373 100.13 163.443 100.2C163.514 100.27 163.553 100.365 163.553 100.465Z" fill="#D2B3E5"/>
<path d="M168.247 100.09H168.902C169.002 100.09 169.097 100.13 169.167 100.2C169.238 100.27 169.277 100.365 169.277 100.465V109.443C169.277 109.543 169.238 109.638 169.167 109.708C169.097 109.779 169.002 109.818 168.902 109.818H168.247C168.147 109.818 168.052 109.779 167.981 109.708C167.911 109.638 167.871 109.543 167.871 109.443V100.465C167.871 100.365 167.911 100.27 167.981 100.2C168.052 100.13 168.147 100.09 168.247 100.09Z" fill="#D2B3E5"/>
<path d="M180.979 100.09H181.787C181.827 100.09 181.866 100.099 181.901 100.118C181.936 100.137 181.966 100.164 181.989 100.197C182.011 100.23 182.024 100.268 182.028 100.308C182.032 100.347 182.026 100.387 182.01 100.424L178.631 109.5C178.597 109.594 178.535 109.676 178.452 109.734C178.37 109.791 178.271 109.821 178.171 109.82H177.281C177.18 109.822 177.082 109.791 176.999 109.734C176.917 109.676 176.854 109.594 176.821 109.5L173.423 100.424C173.41 100.386 173.406 100.346 173.412 100.306C173.418 100.267 173.433 100.23 173.456 100.197C173.479 100.165 173.51 100.138 173.545 100.119C173.58 100.101 173.619 100.091 173.659 100.09H174.442C174.547 100.087 174.649 100.118 174.734 100.178C174.82 100.238 174.883 100.325 174.915 100.424L177.715 108.332L180.514 100.424C180.545 100.325 180.607 100.24 180.691 100.179C180.775 100.119 180.876 100.088 180.979 100.09Z" fill="#D2B3E5"/>
<path d="M191.7 109.486L190.988 107.463H186.811L186.101 109.479C186.067 109.575 186.005 109.658 185.923 109.717C185.841 109.777 185.743 109.81 185.641 109.812H184.834C184.794 109.813 184.755 109.803 184.719 109.785C184.684 109.766 184.654 109.739 184.632 109.706C184.61 109.673 184.596 109.635 184.592 109.595C184.589 109.555 184.595 109.516 184.61 109.479L187.99 100.403C188.023 100.308 188.086 100.227 188.168 100.169C188.251 100.112 188.349 100.081 188.45 100.083H189.342C189.442 100.081 189.54 100.112 189.623 100.169C189.705 100.227 189.768 100.308 189.801 100.403L193.2 109.479C193.212 109.517 193.216 109.557 193.21 109.596C193.204 109.636 193.189 109.673 193.166 109.706C193.143 109.738 193.113 109.765 193.077 109.783C193.042 109.802 193.003 109.812 192.963 109.812H192.169C192.067 109.813 191.967 109.781 191.883 109.723C191.799 109.665 191.735 109.582 191.7 109.486ZM190.543 106.206L188.9 101.578L187.271 106.206H190.543Z" fill="#D2B3E5"/>
</svg>
