<svg width="145" height="28" viewBox="0 0 145 28" fill="#652f87" xmlns="http://www.w3.org/2000/svg">
<path d="M32.2104 5.52409V5.06755C32.2104 3.24426 33.0095 2.73922 34.4393 2.73922H35.1895V0.142668C35.1895 0.10483 35.1743 0.0685438 35.1473 0.0417884C35.1203 0.0150331 35.0837 0 35.0455 0H34.1989C31.2197 0 29.3536 1.41527 29.3536 4.8721V5.51981H27.4184C27.3917 5.51981 27.366 5.53033 27.3471 5.54906C27.3282 5.56779 27.3176 5.59319 27.3176 5.61968V8.25618C27.3176 8.28266 27.3282 8.30806 27.3471 8.32679C27.366 8.34552 27.3917 8.35604 27.4184 8.35604H29.3522V17.4297C29.3522 17.4562 29.3628 17.4816 29.3817 17.5003C29.4006 17.519 29.4263 17.5296 29.453 17.5296H32.1096C32.1363 17.5296 32.162 17.519 32.1809 17.5003C32.1998 17.4816 32.2104 17.4562 32.2104 17.4297V8.35604H34.4868C34.5136 8.35604 34.5392 8.34552 34.5581 8.32679C34.577 8.30806 34.5876 8.28266 34.5876 8.25618V5.62396C34.5876 5.59747 34.577 5.57207 34.5581 5.55334C34.5392 5.53461 34.5136 5.52409 34.4868 5.52409H32.2104Z" fill="#652f87"/>
<path d="M38.3386 3.38847C38.7915 3.38847 39.2258 3.2102 39.5461 2.89289C39.8664 2.57557 40.0463 2.14519 40.0463 1.69643C40.0463 1.24768 39.8664 0.817301 39.5461 0.499982C39.2258 0.182664 38.7915 0.00439453 38.3386 0.00439453C37.8857 0.00439453 37.4513 0.182664 37.131 0.499982C36.8108 0.817301 36.6309 1.24768 36.6309 1.69643C36.6309 2.14519 36.8108 2.57557 37.131 2.89289C37.4513 3.2102 37.8857 3.38847 38.3386 3.38847Z" fill="#652f87"/>
<path d="M36.4365 8.35593H36.9103V17.3697C36.9103 17.4105 36.9266 17.4497 36.9558 17.4786C36.985 17.5075 37.0245 17.5237 37.0658 17.5237H39.6129C39.6542 17.5237 39.6937 17.5075 39.7229 17.4786C39.7521 17.4497 39.7684 17.4105 39.7684 17.3697V5.67092C39.7684 5.63006 39.7521 5.59087 39.7229 5.56197C39.6937 5.53308 39.6542 5.51685 39.6129 5.51685H36.5892C36.5479 5.51685 36.5084 5.53308 36.4792 5.56197C36.45 5.59087 36.4337 5.63006 36.4337 5.67092L36.4365 8.35593Z" fill="#652f87"/>
<path d="M42.5762 17.4611V5.58831C42.5762 5.57166 42.5829 5.5557 42.5947 5.54392C42.6066 5.53215 42.6227 5.52554 42.6395 5.52554H45.3753C45.3921 5.52554 45.4083 5.53215 45.4201 5.54392C45.432 5.5557 45.4387 5.57166 45.4387 5.58831V6.72965C45.4385 6.74201 45.4421 6.75414 45.4491 6.76438C45.4561 6.77462 45.4661 6.78247 45.4778 6.78684C45.4894 6.79122 45.5022 6.79191 45.5143 6.78883C45.5263 6.78574 45.5372 6.77902 45.5452 6.7696C45.986 6.29828 46.5208 5.92277 47.1156 5.66688C47.7105 5.41098 48.3525 5.28026 49.001 5.283C49.0183 5.283 49.0349 5.28972 49.0473 5.30172C49.0597 5.31372 49.0668 5.33005 49.0672 5.3472V7.97086C48.9639 7.95076 48.8586 7.94262 48.7533 7.94661C46.9362 7.94661 45.4344 9.21777 45.4344 11.0425V17.4625C45.4344 17.4792 45.4277 17.4951 45.4158 17.5069C45.4039 17.5187 45.3878 17.5253 45.371 17.5253H42.6352C42.6189 17.5242 42.6037 17.5169 42.5927 17.505C42.5817 17.493 42.5758 17.4773 42.5762 17.4611Z" fill="#652f87"/>
<path d="M51.1464 5.52407H53.5265C53.5899 5.52407 53.6507 5.54902 53.6955 5.59343C53.7404 5.63785 53.7656 5.69809 53.7656 5.7609V6.27593C53.7653 6.32066 53.778 6.36453 53.8022 6.40233C53.8263 6.44012 53.8609 6.47026 53.9018 6.48918C53.9427 6.5081 53.9883 6.515 54.033 6.50906C54.0778 6.50313 54.1199 6.4846 54.1543 6.45569C55.0628 5.69895 56.2116 5.28416 57.3984 5.28439C59.1104 5.28439 60.4884 6.01057 61.2962 7.25177C61.3162 7.28362 61.3435 7.31034 61.3759 7.32976C61.4082 7.34917 61.4448 7.36074 61.4825 7.36352C61.5203 7.3663 61.5582 7.36022 61.5931 7.34576C61.628 7.3313 61.659 7.30887 61.6835 7.2803C62.7274 6.0605 63.9672 5.28296 65.78 5.28296C68.5892 5.28296 70.5317 7.25035 70.5317 10.2977V17.2884C70.5317 17.3512 70.5065 17.4115 70.4617 17.4559C70.4168 17.5003 70.356 17.5253 70.2926 17.5253H67.9082C67.8448 17.5253 67.784 17.5003 67.7392 17.4559C67.6943 17.4115 67.6692 17.3512 67.6692 17.2884V10.8998C67.6692 8.88389 66.6036 7.94799 65.0773 7.94799C63.4301 7.94799 62.1457 9.14783 62.1457 10.9954V17.287C62.1457 17.3498 62.1205 17.4101 62.0757 17.4545C62.0309 17.4989 61.9701 17.5238 61.9067 17.5238H59.528C59.4965 17.524 59.4653 17.518 59.4361 17.5062C59.4069 17.4944 59.3804 17.477 59.3581 17.455C59.3357 17.433 59.318 17.4068 59.3059 17.378C59.2938 17.3491 59.2875 17.3182 59.2875 17.287V10.8998C59.2875 8.88389 58.222 7.94799 56.6957 7.94799C55.0485 7.94799 53.7656 9.14782 53.7656 11.0439V17.287C53.7656 17.3181 53.7594 17.3489 53.7474 17.3776C53.7354 17.4064 53.7177 17.4325 53.6955 17.4545C53.6734 17.4765 53.647 17.4939 53.618 17.5058C53.589 17.5177 53.5579 17.5238 53.5265 17.5238H51.1464C51.1145 17.5246 51.0828 17.519 51.0532 17.5075C51.0235 17.4959 50.9964 17.4786 50.9736 17.4565C50.9508 17.4345 50.9327 17.4081 50.9203 17.379C50.908 17.3499 50.9016 17.3186 50.9016 17.287V5.7609C50.9016 5.72931 50.908 5.69804 50.9203 5.66893C50.9327 5.63982 50.9508 5.61345 50.9736 5.59138C50.9964 5.56931 51.0235 5.55199 51.0532 5.54043C51.0828 5.52887 51.1145 5.52331 51.1464 5.52407Z" fill="#652f87"/>
<path d="M78.6138 5.28442C79.3233 5.29795 80.022 5.45899 80.6647 5.7571C81.3074 6.05522 81.8797 6.48376 82.3446 7.01498V5.78804C82.3446 5.75326 82.3515 5.71882 82.365 5.68671C82.3785 5.65459 82.3982 5.62543 82.4231 5.60091C82.448 5.57638 82.4775 5.55696 82.51 5.54378C82.5425 5.5306 82.5773 5.52392 82.6124 5.5241H84.9349C84.97 5.52392 85.0048 5.5306 85.0373 5.54378C85.0698 5.55696 85.0993 5.57638 85.1242 5.60091C85.1491 5.62543 85.1689 5.65459 85.1824 5.68671C85.1958 5.71882 85.2028 5.75326 85.2028 5.78804V17.2585C85.2028 17.3289 85.1746 17.3964 85.1243 17.4462C85.0741 17.4959 85.006 17.5239 84.9349 17.5239H83.8953C83.4841 17.5239 83.0896 17.362 82.7988 17.0738C82.508 16.7857 82.3446 16.3949 82.3446 15.9873C81.8895 16.5333 81.3202 16.9748 80.6761 17.2815C80.032 17.5882 79.3284 17.7526 78.6138 17.7636C75.1509 17.7636 72.608 14.9559 72.608 11.5233C72.608 8.09069 75.1509 5.28442 78.6138 5.28442ZM75.5555 10.74C75.3838 11.462 75.4543 12.2198 75.7565 12.8984C76.0586 13.5771 76.5759 14.1396 77.2298 14.5007C77.8837 14.8618 78.6387 15.0017 79.3801 14.8993C80.1216 14.7969 80.8091 14.4578 81.3385 13.9333C81.8678 13.4088 82.2101 12.7276 82.3135 11.9929C82.4168 11.2583 82.2755 10.5103 81.9111 9.86234C81.5467 9.21441 80.9789 8.7019 80.294 8.40253C79.6091 8.10316 78.8443 8.03324 78.1156 8.2034C77.4939 8.35027 76.9254 8.66512 76.4734 9.11293C76.0215 9.56075 75.7037 10.124 75.5555 10.74Z" fill="#652f87"/>
<path d="M88.1574 5.52407H90.7219C90.7601 5.52407 90.7967 5.5391 90.8237 5.56586C90.8507 5.59261 90.8659 5.6289 90.8659 5.66673V6.47566C90.8654 6.50412 90.8735 6.53206 90.8892 6.5559C90.9049 6.57974 90.9275 6.59838 90.954 6.60942C90.9804 6.62047 91.0096 6.62341 91.0378 6.61788C91.066 6.61235 91.0919 6.59859 91.1121 6.57838C92.0393 5.74473 93.2466 5.28293 94.4987 5.28296C96.2611 5.28296 97.6665 6.05194 98.4656 7.3602C98.4774 7.37962 98.4937 7.39596 98.5132 7.40789C98.5326 7.41982 98.5546 7.42699 98.5774 7.4288C98.6002 7.43061 98.6231 7.42702 98.6443 7.41831C98.6654 7.40961 98.6841 7.39605 98.6989 7.37875C99.7615 6.09474 101.019 5.28296 102.875 5.28296C105.684 5.28296 107.626 7.25035 107.626 10.2977V17.3769C107.626 17.4147 107.611 17.451 107.584 17.4778C107.557 17.5045 107.52 17.5196 107.482 17.5196H104.919C104.881 17.5196 104.844 17.5045 104.817 17.4778C104.79 17.451 104.775 17.4147 104.775 17.3769V10.8998C104.775 8.88389 103.71 7.94799 102.183 7.94799C100.536 7.94799 99.2532 9.14783 99.2532 10.9954V17.3783C99.2532 17.4162 99.2381 17.4524 99.2111 17.4792C99.1841 17.506 99.1474 17.521 99.1092 17.521H96.5376C96.4994 17.521 96.4628 17.506 96.4358 17.4792C96.4088 17.4524 96.3936 17.4162 96.3936 17.3783V10.8998C96.3936 8.88389 95.3281 7.94799 93.8018 7.94799C92.1531 7.94799 90.8702 9.14782 90.8702 11.0439V17.3783C90.8702 17.4162 90.855 17.4524 90.828 17.4792C90.801 17.506 90.7644 17.521 90.7262 17.521H88.1574C88.1192 17.521 88.0826 17.506 88.0556 17.4792C88.0286 17.4524 88.0134 17.4162 88.0134 17.3783V5.66816C88.0132 5.64931 88.0168 5.6306 88.024 5.61313C88.0311 5.59566 88.0417 5.57976 88.0551 5.56636C88.0685 5.55296 88.0844 5.54232 88.102 5.53507C88.1196 5.52781 88.1384 5.52407 88.1574 5.52407Z" fill="#652f87"/>
<path d="M115.887 5.28442C119.327 5.28442 121.677 7.77968 121.677 11.3549C121.664 11.7763 121.63 12.1968 121.574 12.6147C121.569 12.6645 121.545 12.7105 121.507 12.7439C121.469 12.7773 121.421 12.7958 121.37 12.7959H112.545C113.029 14.2839 114.385 15.1955 116.178 15.1955C117.268 15.1955 118.314 14.8374 119.039 14.1412C119.058 14.1224 119.08 14.1075 119.105 14.0973C119.129 14.0871 119.156 14.0819 119.183 14.0819C119.21 14.0819 119.236 14.0871 119.261 14.0973C119.285 14.1075 119.308 14.1224 119.327 14.1412L120.856 15.6564C120.893 15.695 120.913 15.746 120.913 15.799C120.913 15.852 120.893 15.9031 120.856 15.9417C119.704 17.1201 118.06 17.7621 116.15 17.7621C112.493 17.7621 109.708 15.0514 109.708 11.5219C109.708 7.99226 112.375 5.28442 115.887 5.28442ZM112.496 10.5817H118.988C118.745 8.87822 117.462 7.82248 115.839 7.82248C114.168 7.82819 112.738 8.93243 112.496 10.5817Z" fill="#652f87"/>
<path d="M123.76 17.3114V5.73107C123.761 5.67456 123.783 5.62049 123.824 5.58067C123.864 5.54084 123.919 5.51849 123.976 5.51849H126.404C126.461 5.51849 126.515 5.54089 126.555 5.58075C126.596 5.62062 126.618 5.67469 126.618 5.73107V6.32171C126.618 6.36209 126.63 6.40164 126.652 6.43569C126.674 6.46974 126.705 6.49686 126.742 6.51382C126.779 6.53079 126.82 6.5369 126.86 6.53142C126.901 6.52594 126.939 6.50911 126.97 6.48292C127.884 5.70576 129.048 5.2786 130.253 5.27881C133.062 5.27881 135.004 7.24619 135.004 10.2936V17.3057C135.004 17.3621 134.982 17.4161 134.941 17.456C134.901 17.4959 134.847 17.5183 134.79 17.5183H132.353C132.297 17.5183 132.242 17.4959 132.202 17.456C132.161 17.4161 132.139 17.3621 132.139 17.3057V10.8999C132.139 8.88402 131.073 7.94812 129.547 7.94812C127.9 7.94812 126.615 9.14795 126.615 11.044V17.3114C126.615 17.3678 126.593 17.4218 126.553 17.4617C126.512 17.5016 126.458 17.524 126.401 17.524H123.973C123.917 17.5232 123.863 17.5005 123.823 17.4608C123.783 17.4211 123.761 17.3674 123.76 17.3114Z" fill="#652f87"/>
<path d="M137.727 5.52408C138.082 5.5237 138.423 5.38379 138.674 5.13505C138.925 4.88631 139.066 4.54905 139.066 4.19727V2.57799C139.066 2.54253 139.073 2.50738 139.087 2.47458C139.1 2.44178 139.12 2.41198 139.145 2.38691C139.171 2.36183 139.201 2.34197 139.234 2.32849C139.267 2.31501 139.303 2.30816 139.338 2.30835H141.651C141.687 2.30817 141.722 2.315 141.755 2.32847C141.789 2.34193 141.819 2.36177 141.844 2.38682C141.87 2.41188 141.89 2.44167 141.904 2.47448C141.917 2.50728 141.924 2.54246 141.924 2.57799V5.25301C141.924 5.28854 141.931 5.32376 141.945 5.35664C141.958 5.38951 141.978 5.41941 142.004 5.4446C142.029 5.46979 142.059 5.48978 142.092 5.50342C142.125 5.51706 142.161 5.52408 142.197 5.52408H144.728C144.8 5.52408 144.869 5.55249 144.92 5.60306C144.971 5.65362 145 5.72221 145 5.79372V8.08496C145 8.15661 144.971 8.22534 144.92 8.27613C144.869 8.32692 144.8 8.35565 144.728 8.35603H142.191C142.119 8.35603 142.049 8.38444 141.998 8.43501C141.947 8.48557 141.919 8.55416 141.919 8.62567V12.6517C141.919 14.5478 142.207 15.0272 143.371 15.0272C143.807 15.0235 144.24 14.98 144.667 14.8973C144.707 14.89 144.748 14.8914 144.786 14.9013C144.825 14.9113 144.862 14.9295 144.893 14.9548C144.924 14.9801 144.949 15.0118 144.966 15.0477C144.983 15.0837 144.992 15.1229 144.993 15.1627V17.3027C144.993 17.3637 144.973 17.423 144.935 17.471C144.897 17.519 144.844 17.5527 144.784 17.5666C144.191 17.6889 143.588 17.7525 142.983 17.7564C140.221 17.7564 139.059 16.508 139.059 13.4849V8.62567C139.059 8.55403 139.03 8.48544 138.978 8.43492C138.927 8.38439 138.858 8.35603 138.785 8.35603H137.108C137.036 8.35565 136.966 8.32692 136.915 8.27613C136.864 8.22534 136.836 8.15661 136.836 8.08496V5.79372C136.836 5.72221 136.864 5.65362 136.916 5.60306C136.967 5.55249 137.036 5.52408 137.108 5.52408H137.727Z" fill="#652f87"/>
<path d="M29.1017 21.6641H29.4184C29.4423 21.6639 29.466 21.6684 29.4881 21.6774C29.5102 21.6863 29.5303 21.6996 29.5472 21.7163C29.564 21.733 29.5774 21.7529 29.5864 21.7748C29.5955 21.7967 29.6001 21.8202 29.5999 21.8438V26.1524C29.6001 26.1761 29.5955 26.1996 29.5865 26.2216C29.5774 26.2436 29.5641 26.2636 29.5472 26.2804C29.5304 26.2973 29.5103 26.3106 29.4882 26.3198C29.4661 26.3289 29.4424 26.3336 29.4184 26.3336H29.1017C29.0777 26.3336 29.054 26.3289 29.0319 26.3198C29.0098 26.3106 28.9897 26.2973 28.9729 26.2804C28.956 26.2636 28.9427 26.2436 28.9336 26.2216C28.9246 26.1996 28.92 26.1761 28.9202 26.1524V21.8438C28.92 21.8202 28.9246 21.7967 28.9337 21.7748C28.9427 21.7529 28.9561 21.733 28.9729 21.7163C28.9898 21.6996 29.0099 21.6863 29.032 21.6774C29.0541 21.6684 29.0778 21.6639 29.1017 21.6641Z" fill="#652f87"/>
<path d="M35.5798 21.6641H35.8951C35.9423 21.6652 35.9872 21.6847 36.0201 21.7183C36.0529 21.7519 36.0711 21.797 36.0708 21.8438V26.1524C36.0715 26.1994 36.0535 26.2449 36.0206 26.2788C35.9877 26.3128 35.9426 26.3325 35.8951 26.3336H35.6388C35.5909 26.3334 35.5437 26.3218 35.5014 26.2997C35.459 26.2776 35.4226 26.2457 35.3954 26.2066L33.047 22.891V26.1524C33.0478 26.1994 33.0297 26.2449 32.9968 26.2788C32.9639 26.3128 32.9188 26.3325 32.8713 26.3336H32.5545C32.5306 26.3336 32.5069 26.3289 32.4848 26.3198C32.4627 26.3106 32.4426 26.2973 32.4257 26.2804C32.4089 26.2636 32.3955 26.2436 32.3865 26.2216C32.3775 26.1996 32.3729 26.1761 32.3731 26.1524V21.8438C32.3729 21.8202 32.3775 21.7967 32.3865 21.7748C32.3956 21.7529 32.4089 21.733 32.4258 21.7163C32.4427 21.6996 32.4628 21.6863 32.4849 21.6774C32.507 21.6684 32.5307 21.6639 32.5545 21.6641H32.8036C32.8524 21.664 32.9004 21.6755 32.9438 21.6976C32.9871 21.7197 33.0245 21.7517 33.0527 21.791L35.4026 25.0995V21.8438C35.4026 21.7969 35.4212 21.7518 35.4542 21.7182C35.4873 21.6846 35.5324 21.6652 35.5798 21.6641Z" fill="#652f87"/>
<path d="M43.4631 23.9923C43.4631 25.3605 42.4681 26.4176 41.0729 26.4176C39.6776 26.4176 38.6769 25.3633 38.6769 23.9923C38.6769 22.6213 39.6733 21.5784 41.0729 21.5784C42.4724 21.5784 43.4631 22.6313 43.4631 23.9923ZM42.7834 23.9923C42.7834 23.0849 42.1715 22.199 41.0729 22.199C39.9742 22.199 39.3637 23.0849 39.3637 23.9923C39.3637 24.8997 39.9771 25.7871 41.0729 25.7871C42.1686 25.7871 42.7834 24.9054 42.7834 23.9923Z" fill="#652f87"/>
<path d="M49.2486 21.664H49.6389C49.6581 21.6639 49.677 21.6686 49.6939 21.6775C49.7109 21.6865 49.7253 21.6994 49.736 21.7152C49.7467 21.731 49.7533 21.7492 49.7552 21.7681C49.7571 21.7871 49.7542 21.8062 49.7469 21.8237L48.1111 26.1794C48.095 26.2247 48.0649 26.264 48.0251 26.2916C47.9854 26.3192 47.9379 26.3338 47.8894 26.3335H47.4574C47.4088 26.3341 47.3613 26.3195 47.3215 26.2918C47.2817 26.2642 47.2517 26.2249 47.2357 26.1794L45.5928 21.8237C45.5866 21.8056 45.5849 21.7862 45.5878 21.7673C45.5906 21.7483 45.598 21.7303 45.6092 21.7147C45.6205 21.6992 45.6353 21.6864 45.6524 21.6776C45.6696 21.6688 45.6886 21.6641 45.708 21.664H46.091C46.1415 21.6622 46.1912 21.6769 46.2325 21.7057C46.2739 21.7346 46.3046 21.776 46.3199 21.8237L47.6734 25.6201L49.0298 21.8237C49.0442 21.7774 49.0733 21.7369 49.1127 21.7082C49.1521 21.6794 49.1997 21.6639 49.2486 21.664Z" fill="#652f87"/>
<path d="M54.9189 26.1738L54.5762 25.2065H52.5604L52.2177 26.1738C52.2013 26.2198 52.1712 26.2597 52.1313 26.2882C52.0914 26.3168 52.0437 26.3326 51.9945 26.3336H51.6043C51.5851 26.3336 51.5662 26.329 51.5492 26.32C51.5323 26.3111 51.5178 26.2981 51.5071 26.2823C51.4965 26.2665 51.4899 26.2484 51.488 26.2294C51.4861 26.2105 51.489 26.1914 51.4963 26.1738L53.132 21.8167C53.1487 21.7715 53.1791 21.7326 53.2191 21.7052C53.2591 21.6779 53.3066 21.6635 53.3552 21.6641H53.7872C53.8356 21.6634 53.883 21.6777 53.9228 21.7051C53.9626 21.7325 53.9927 21.7715 54.0089 21.8167L55.6533 26.1738C55.6597 26.1919 55.6617 26.2112 55.6591 26.2302C55.6564 26.2491 55.6492 26.2672 55.6381 26.2828C55.6269 26.2985 55.6122 26.3113 55.595 26.3201C55.5779 26.3289 55.5588 26.3335 55.5395 26.3336H55.1551C55.1037 26.3353 55.0531 26.3207 55.0106 26.292C54.9682 26.2632 54.936 26.2218 54.9189 26.1738ZM54.3603 24.6045L53.5654 22.3831L52.7735 24.5988L54.3603 24.6045Z" fill="#652f87"/>
<path d="M61.3826 25.2993C61.4101 25.2668 61.4491 25.2459 61.4917 25.2408C61.5342 25.2358 61.5771 25.247 61.6115 25.2722L61.8678 25.4391C61.8899 25.4536 61.9085 25.4727 61.9224 25.495C61.9363 25.5174 61.9451 25.5424 61.9482 25.5685C61.9514 25.5945 61.9488 25.6209 61.9406 25.6459C61.9325 25.6709 61.9189 25.6938 61.901 25.713C61.6762 25.9401 61.4071 26.1194 61.11 26.2399C60.8128 26.3603 60.4941 26.4194 60.1731 26.4135L60.0464 26.6675C60.4567 26.6275 60.8268 26.8101 60.8268 27.2866C60.8268 27.6947 60.5028 28 59.9989 28C59.8397 28.0016 59.6817 27.9725 59.5338 27.9144C59.5179 27.9083 59.5035 27.899 59.4917 27.887C59.4798 27.8749 59.4706 27.8605 59.4649 27.8447C59.4592 27.8288 59.4569 27.8119 59.4584 27.7951C59.4598 27.7784 59.4649 27.7621 59.4733 27.7475L59.5683 27.5805C59.5818 27.556 59.6038 27.5371 59.6303 27.5274C59.6568 27.5177 59.6859 27.5178 59.7123 27.5278C59.7919 27.5579 59.8763 27.5734 59.9614 27.5734C60.2379 27.5734 60.3934 27.4307 60.3934 27.2267C60.3934 27.0227 60.2652 26.9328 60.0493 26.9328C59.9754 26.9326 59.9021 26.9461 59.8333 26.9728C59.8095 26.9799 59.7841 26.9799 59.7603 26.9728C59.7364 26.9657 59.7153 26.9518 59.6994 26.9328L59.6461 26.8601C59.6324 26.8421 59.6239 26.8209 59.6214 26.7985C59.6188 26.7762 59.6224 26.7536 59.6317 26.7331L59.8074 26.3864C58.6022 26.2266 57.767 25.2451 57.767 23.991C57.767 22.6243 58.775 21.5657 60.1644 21.5657C60.4864 21.5611 60.8059 21.6221 61.1031 21.7448C61.4003 21.8675 61.6689 22.0493 61.8923 22.279C61.9103 22.2983 61.9238 22.3212 61.932 22.3461C61.9402 22.3711 61.9428 22.3975 61.9396 22.4235C61.9365 22.4496 61.9276 22.4747 61.9138 22.497C61.8999 22.5193 61.8813 22.5384 61.8592 22.5529L61.6029 22.7184C61.5676 22.7408 61.5255 22.7505 61.4838 22.7458C61.4421 22.7411 61.4034 22.7224 61.374 22.6927C61.2176 22.5319 61.0292 22.405 60.8208 22.32C60.6123 22.2351 60.3883 22.1939 60.163 22.1991C59.0658 22.1991 58.4524 23.0851 58.4524 23.9924C58.4524 24.8998 59.0658 25.7872 60.163 25.7872C60.3893 25.794 60.6146 25.7542 60.8245 25.6702C61.0345 25.5862 61.2245 25.4599 61.3826 25.2993Z" fill="#652f87"/>
<path d="M67.6591 26.1738L67.3164 25.2065H65.3006L64.9579 26.1738C64.9415 26.2197 64.9113 26.2596 64.8715 26.2882C64.8316 26.3167 64.7839 26.3326 64.7347 26.3336H64.3445C64.3253 26.3336 64.3064 26.3289 64.2894 26.32C64.2725 26.3111 64.258 26.2981 64.2473 26.2823C64.2366 26.2665 64.2301 26.2483 64.2282 26.2294C64.2263 26.2105 64.2291 26.1913 64.2365 26.1738L65.8722 21.8167C65.8889 21.7715 65.9193 21.7325 65.9593 21.7052C65.9993 21.6779 66.0468 21.6635 66.0954 21.664H66.5273C66.5758 21.6634 66.6232 21.6777 66.663 21.7051C66.7027 21.7325 66.7329 21.7715 66.7491 21.8167L68.392 26.1738C68.3984 26.1918 68.4004 26.2111 68.3978 26.2301C68.3951 26.2491 68.388 26.2671 68.3768 26.2828C68.3657 26.2984 68.3509 26.3112 68.3338 26.32C68.3166 26.3289 68.2976 26.3335 68.2783 26.3336H67.8924C67.8414 26.3349 67.7914 26.3201 67.7494 26.2914C67.7075 26.2626 67.6759 26.2215 67.6591 26.1738ZM67.2142 20.4756C67.2455 20.4828 67.2727 20.5016 67.2904 20.5282C67.3081 20.5547 67.3148 20.587 67.3092 20.6183C67.2343 20.9393 67.0529 21.1062 66.7577 21.1062C66.4266 21.1062 66.1919 20.8865 65.9356 20.8865C65.8853 20.8874 65.8368 20.9049 65.7977 20.9361C65.7586 20.9674 65.7311 21.0107 65.7196 21.0591C65.7089 21.0849 65.6901 21.1066 65.666 21.121C65.6418 21.1354 65.6137 21.1417 65.5857 21.139L65.4172 21.1062C65.4008 21.104 65.3851 21.0985 65.371 21.09C65.3569 21.0815 65.3447 21.0702 65.3352 21.0568C65.3258 21.0434 65.3192 21.0282 65.316 21.0121C65.3127 20.9961 65.3129 20.9795 65.3164 20.9636C65.4042 20.6297 65.5857 20.4756 65.8679 20.4756C66.1717 20.4756 66.4208 20.6968 66.6829 20.6968C66.7356 20.699 66.7874 20.6828 66.8293 20.651C66.8711 20.6192 66.9003 20.5737 66.9118 20.5227C66.9193 20.4948 66.9374 20.4708 66.9624 20.4559C66.9874 20.441 67.0173 20.4363 67.0457 20.4428L67.2142 20.4756ZM67.1004 24.5987L66.3085 22.3774L65.5209 24.5987H67.1004Z" fill="#652f87"/>
<path d="M75.302 23.9923C75.302 25.3605 74.3056 26.4176 72.9118 26.4176C71.518 26.4176 70.5144 25.3633 70.5144 23.9923C70.5144 22.6213 71.5108 21.5784 72.9118 21.5784C74.3128 21.5784 75.302 22.6313 75.302 23.9923ZM74.621 23.9923C74.621 23.0849 74.009 22.199 72.9118 22.199C71.8146 22.199 71.2041 23.0906 71.2041 23.9923C71.2041 24.894 71.8175 25.7871 72.9147 25.7871C74.0119 25.7871 74.621 24.9054 74.621 23.9923Z" fill="#652f87"/>
<path d="M84.9983 25.2992C85.0258 25.2667 85.0648 25.2458 85.1074 25.2408C85.1499 25.2358 85.1928 25.247 85.2273 25.2721L85.4836 25.439C85.506 25.4532 85.525 25.4722 85.5392 25.4945C85.5534 25.5169 85.5624 25.542 85.5656 25.5682C85.5687 25.5944 85.566 25.621 85.5575 25.646C85.5491 25.6711 85.5351 25.6939 85.5167 25.713C85.2913 25.9393 85.0221 26.118 84.7251 26.2384C84.4281 26.3588 84.1096 26.4184 83.7888 26.4135C82.3964 26.4135 81.3928 25.3663 81.3928 23.9981C81.3928 22.6299 82.4007 21.5727 83.7888 21.5727C84.1107 21.5682 84.4302 21.6291 84.7274 21.7518C85.0246 21.8745 85.2933 22.0564 85.5167 22.2861C85.5351 22.3051 85.5491 22.328 85.5575 22.353C85.566 22.378 85.5687 22.4046 85.5656 22.4308C85.5624 22.457 85.5534 22.4822 85.5392 22.5045C85.525 22.5269 85.506 22.5458 85.4836 22.56L85.2273 22.7255C85.1919 22.7479 85.1499 22.7576 85.1082 22.7529C85.0665 22.7482 85.0277 22.7295 84.9983 22.6998C84.8417 22.5389 84.6531 22.4119 84.4444 22.3269C84.2357 22.242 84.0115 22.2009 83.7859 22.2062C82.6902 22.2062 82.0768 23.0922 82.0768 23.9995C82.0768 24.9069 82.6902 25.7943 83.7859 25.7943C84.0115 25.7991 84.2357 25.7576 84.4444 25.6724C84.653 25.5872 84.8416 25.4601 84.9983 25.2992Z" fill="#652f87"/>
<path d="M92.6138 23.9923C92.6138 25.3605 91.6189 26.4176 90.2236 26.4176C88.8284 26.4176 87.8276 25.3633 87.8276 23.9923C87.8276 22.6213 88.824 21.5784 90.2236 21.5784C91.6232 21.5784 92.6138 22.6313 92.6138 23.9923ZM91.9385 23.9923C91.9385 23.0849 91.3266 22.199 90.2279 22.199C89.1293 22.199 88.5188 23.0849 88.5188 23.9923C88.5188 24.8997 89.1322 25.7871 90.2279 25.7871C91.3237 25.7871 91.9385 24.9054 91.9385 23.9923Z" fill="#652f87"/>
<path d="M98.385 26.3337H98.015C97.9605 26.3343 97.907 26.3196 97.8606 26.2914C97.8142 26.2631 97.7769 26.2223 97.7529 26.1739L96.8573 24.5261C96.7968 24.5261 96.7363 24.5261 96.6759 24.5261H95.894V26.1468C95.8948 26.1936 95.8769 26.2388 95.8443 26.2727C95.8117 26.3066 95.767 26.3265 95.7198 26.328H95.403C95.379 26.328 95.3553 26.3233 95.3332 26.3141C95.3111 26.305 95.2911 26.2917 95.2742 26.2748C95.2573 26.258 95.244 26.238 95.235 26.216C95.2259 26.194 95.2214 26.1705 95.2216 26.1468V21.8382C95.2214 21.8146 95.2259 21.7911 95.235 21.7692C95.244 21.7473 95.2574 21.7274 95.2743 21.7107C95.2912 21.694 95.3112 21.6807 95.3333 21.6717C95.3554 21.6628 95.3791 21.6583 95.403 21.6585H96.6759C97.7529 21.6585 98.3648 22.2848 98.3648 23.0923C98.3714 23.365 98.2936 23.6331 98.1421 23.8608C97.9905 24.0885 97.7723 24.2649 97.5168 24.3663L98.5132 26.1068C98.5296 26.1289 98.5393 26.1552 98.541 26.1826C98.5427 26.21 98.5365 26.2373 98.5229 26.2612C98.5094 26.2851 98.4892 26.3047 98.4647 26.3176C98.4403 26.3304 98.4126 26.336 98.385 26.3337ZM96.6759 23.9254C97.3209 23.9254 97.6838 23.5987 97.6838 23.098C97.6838 22.5972 97.3267 22.2705 96.6759 22.2705H95.894V23.9254H96.6759Z" fill="#652f87"/>
<path d="M104.284 23.1849C104.284 24.0409 103.651 24.7129 102.588 24.7129H101.753V26.1524C101.754 26.1757 101.75 26.199 101.742 26.2209C101.733 26.2427 101.721 26.2627 101.705 26.2796C101.688 26.2965 101.669 26.31 101.647 26.3193C101.625 26.3285 101.602 26.3334 101.579 26.3336H101.262C101.238 26.3338 101.214 26.3292 101.192 26.3202C101.169 26.3111 101.149 26.2978 101.132 26.2809C101.115 26.2641 101.102 26.244 101.093 26.2219C101.083 26.1999 101.079 26.1762 101.079 26.1524V21.8438C101.079 21.8201 101.084 21.7966 101.093 21.7747C101.102 21.7528 101.116 21.7329 101.133 21.7162C101.15 21.6995 101.17 21.6863 101.192 21.6773C101.214 21.6684 101.238 21.6639 101.262 21.6641H102.594C103.651 21.6641 104.284 22.3303 104.284 23.1849ZM103.597 23.1849C103.597 22.6385 103.22 22.2704 102.589 22.2704H101.754V24.0994H102.594C103.22 24.0994 103.602 23.7313 103.602 23.1849H103.597Z" fill="#652f87"/>
<path d="M111.476 23.9923C111.476 25.3605 110.48 26.4176 109.086 26.4176C107.692 26.4176 106.689 25.3633 106.689 23.9923C106.689 22.6213 107.685 21.5784 109.086 21.5784C110.487 21.5784 111.476 22.6313 111.476 23.9923ZM110.801 23.9923C110.801 23.0849 110.189 22.199 109.092 22.199C107.995 22.199 107.381 23.0849 107.381 23.9923C107.381 24.8997 107.995 25.7871 109.092 25.7871C110.189 25.7871 110.801 24.9054 110.801 23.9923Z" fill="#652f87"/>
<path d="M117.248 26.3337H116.877C116.823 26.3346 116.769 26.32 116.722 26.2917C116.676 26.2634 116.638 26.2226 116.614 26.1739L115.718 24.5261C115.658 24.5261 115.597 24.5261 115.537 24.5261H114.757V26.1468C114.757 26.1938 114.739 26.2393 114.706 26.2732C114.673 26.3072 114.628 26.3268 114.581 26.328H114.266C114.241 26.3281 114.218 26.3236 114.195 26.3146C114.173 26.3055 114.153 26.2922 114.136 26.2753C114.119 26.2584 114.105 26.2384 114.096 26.2163C114.087 26.1943 114.082 26.1706 114.083 26.1468V21.8382C114.083 21.8145 114.087 21.791 114.097 21.7691C114.106 21.7472 114.119 21.7273 114.136 21.7106C114.153 21.6939 114.173 21.6807 114.196 21.6717C114.218 21.6628 114.242 21.6583 114.266 21.6585H115.537C116.614 21.6585 117.227 22.2848 117.227 23.0923C117.234 23.365 117.156 23.6331 117.005 23.8608C116.853 24.0885 116.635 24.2649 116.379 24.3663L117.376 26.1068C117.392 26.1289 117.402 26.1552 117.404 26.1826C117.405 26.21 117.399 26.2373 117.385 26.2612C117.372 26.2851 117.352 26.3047 117.327 26.3176C117.303 26.3304 117.275 26.336 117.248 26.3337ZM115.537 23.9254C116.183 23.9254 116.545 23.5987 116.545 23.098C116.545 22.5972 116.188 22.2705 115.537 22.2705H114.757V23.9254H115.537Z" fill="#652f87"/>
<path d="M123.086 26.1738L122.742 25.2065H120.726L120.382 26.1738C120.366 26.2198 120.336 26.2598 120.297 26.2883C120.257 26.3169 120.21 26.3327 120.16 26.3336H119.77C119.751 26.334 119.732 26.3296 119.715 26.3207C119.698 26.3119 119.683 26.2989 119.672 26.283C119.661 26.2671 119.655 26.2487 119.653 26.2297C119.651 26.2106 119.655 26.1914 119.662 26.1738L121.298 21.8167C121.314 21.7715 121.344 21.7325 121.384 21.7051C121.424 21.6778 121.471 21.6634 121.52 21.6641H121.952C122 21.6633 122.048 21.6776 122.088 21.705C122.128 21.7324 122.158 21.7714 122.175 21.8167L123.818 26.1738C123.824 26.192 123.826 26.2113 123.823 26.2303C123.82 26.2492 123.813 26.2672 123.801 26.2828C123.79 26.2984 123.775 26.3111 123.758 26.32C123.741 26.3288 123.722 26.3335 123.703 26.3336H123.32C123.269 26.3349 123.219 26.3201 123.177 26.2914C123.135 26.2627 123.103 26.2215 123.086 26.1738ZM122.528 24.6045L121.733 22.3831L120.945 24.6045H122.528Z" fill="#652f87"/>
<path d="M128.762 21.8438V22.0906C128.763 22.1143 128.758 22.1378 128.749 22.1597C128.74 22.1816 128.727 22.2014 128.71 22.2182C128.693 22.2349 128.673 22.2481 128.651 22.2571C128.629 22.2661 128.605 22.2706 128.581 22.2704H127.573V26.1524C127.573 26.1762 127.569 26.1999 127.56 26.2219C127.55 26.244 127.537 26.2641 127.52 26.2809C127.503 26.2978 127.483 26.3111 127.46 26.3202C127.438 26.3292 127.414 26.3338 127.39 26.3336H127.081C127.057 26.3336 127.033 26.3289 127.011 26.3198C126.989 26.3106 126.969 26.2973 126.952 26.2804C126.935 26.2636 126.922 26.2436 126.913 26.2216C126.904 26.1996 126.899 26.1761 126.899 26.1524V22.2704H125.891C125.867 22.2706 125.844 22.2661 125.821 22.2571C125.799 22.2482 125.779 22.235 125.762 22.2183C125.745 22.2016 125.732 22.1817 125.722 22.1598C125.713 22.1379 125.708 22.1144 125.708 22.0906V21.8438C125.708 21.8201 125.713 21.7966 125.722 21.7747C125.732 21.7528 125.745 21.7329 125.762 21.7162C125.779 21.6995 125.799 21.6863 125.821 21.6773C125.844 21.6684 125.867 21.6639 125.891 21.6641H128.584C128.607 21.6643 128.631 21.6691 128.653 21.6782C128.674 21.6873 128.694 21.7006 128.711 21.7173C128.727 21.734 128.74 21.7538 128.749 21.7755C128.758 21.7972 128.763 21.8204 128.762 21.8438Z" fill="#652f87"/>
<path d="M131.517 21.6641H131.834C131.858 21.6639 131.881 21.6684 131.903 21.6774C131.925 21.6863 131.945 21.6996 131.962 21.7163C131.979 21.733 131.993 21.7529 132.002 21.7748C132.011 21.7967 132.015 21.8202 132.015 21.8438V26.1524C132.015 26.1761 132.011 26.1996 132.002 26.2216C131.993 26.2436 131.979 26.2636 131.962 26.2804C131.946 26.2973 131.926 26.3106 131.903 26.3198C131.881 26.3289 131.858 26.3336 131.834 26.3336H131.517C131.493 26.3336 131.469 26.3289 131.447 26.3198C131.425 26.3106 131.405 26.2973 131.388 26.2804C131.371 26.2636 131.358 26.2436 131.349 26.2216C131.34 26.1996 131.335 26.1761 131.335 26.1524V21.8438C131.335 21.8202 131.34 21.7967 131.349 21.7748C131.358 21.7529 131.371 21.733 131.388 21.7163C131.405 21.6996 131.425 21.6863 131.447 21.6774C131.469 21.6684 131.493 21.6639 131.517 21.6641Z" fill="#652f87"/>
<path d="M138.159 21.6642H138.549C138.569 21.6641 138.587 21.6688 138.604 21.6777C138.621 21.6867 138.636 21.6996 138.646 21.7154C138.657 21.7312 138.664 21.7494 138.666 21.7683C138.667 21.7873 138.665 21.8064 138.657 21.824L137.022 26.1796C137.005 26.2251 136.975 26.2643 136.935 26.2919C136.895 26.3195 136.847 26.3341 136.798 26.3337H136.366C136.318 26.3343 136.27 26.3197 136.23 26.2921C136.191 26.2644 136.161 26.2251 136.145 26.1796L134.508 21.824C134.501 21.8059 134.499 21.7866 134.502 21.7676C134.504 21.7486 134.512 21.7306 134.523 21.7149C134.534 21.6993 134.549 21.6865 134.566 21.6777C134.583 21.6688 134.602 21.6642 134.621 21.6642H135.006C135.056 21.6627 135.106 21.6774 135.147 21.7062C135.188 21.735 135.219 21.7764 135.235 21.824L136.587 25.6203L137.94 21.824C137.955 21.7778 137.984 21.7374 138.023 21.7087C138.063 21.6799 138.11 21.6644 138.159 21.6642Z" fill="#652f87"/>
<path d="M143.834 26.1738L143.49 25.2065H141.474L141.13 26.1738C141.114 26.2198 141.084 26.2598 141.044 26.2883C141.004 26.3169 140.957 26.3327 140.908 26.3336H140.518C140.498 26.334 140.479 26.3296 140.462 26.3207C140.445 26.3119 140.43 26.2989 140.419 26.283C140.409 26.2671 140.402 26.2487 140.4 26.2297C140.399 26.2106 140.402 26.1914 140.41 26.1738L142.047 21.8167C142.063 21.7715 142.093 21.7325 142.133 21.7051C142.173 21.6778 142.22 21.6634 142.269 21.6641H142.7C142.749 21.6633 142.797 21.6776 142.837 21.705C142.877 21.7324 142.907 21.7714 142.924 21.8167L144.567 26.1738C144.573 26.192 144.574 26.2113 144.572 26.2303C144.569 26.2492 144.561 26.2672 144.55 26.2828C144.539 26.2984 144.524 26.3111 144.507 26.32C144.49 26.3288 144.471 26.3335 144.451 26.3336H144.063C144.012 26.334 143.963 26.3188 143.922 26.2901C143.881 26.2615 143.85 26.2208 143.834 26.1738ZM143.275 24.6045L142.479 22.3774L141.691 24.5988L143.275 24.6045Z" fill="#652f87"/>
<path d="M11.607 6.39864C10.5112 6.74532 9.30317 6.57697 8.45363 5.97063C7.96839 5.62538 7.5537 5.78231 7.39387 6.37153C6.67393 9.0337 3.32618 10.3006 0.969077 8.79688C0.860079 8.71175 0.723726 8.66849 0.5851 8.67505C0.446473 8.6816 0.314897 8.73753 0.214573 8.83254C0.105682 8.9182 0.0323283 9.04049 0.00843883 9.1762C-0.0154507 9.31191 0.0117883 9.45158 0.0849831 9.56871C0.139989 9.6766 0.20558 9.77886 0.280808 9.87402C2.87261 13.1154 6.2362 14.8545 10.4176 15.01C11.9051 15.0643 13.3521 14.8103 14.8208 14.3538C15.0397 14.903 15.2528 15.4338 15.4616 15.9616C15.6545 16.4367 15.9655 16.6136 16.3255 16.4638C16.6855 16.314 16.769 15.9973 16.5919 15.5408C16.3874 15.0072 16.1715 14.4779 15.9526 13.9272C16.0577 13.863 16.0966 13.8373 16.134 13.8173C19.4938 12.1947 21.763 9.62673 22.9418 6.1133C23.5241 4.35912 23.7109 2.49974 23.489 0.666255C23.4458 0.283906 23.26 0.0171169 22.8742 0.00570351C22.4883 -0.00570989 22.3371 0.278199 22.2291 0.639148C22.1175 1.07466 21.9262 1.48619 21.6646 1.85325C20.6495 3.14724 19.2658 3.73931 17.6329 3.63517C17.0611 3.5797 16.5084 3.40152 16.0131 3.113C15.3579 2.74777 15.0138 2.84621 14.8367 3.5624C14.5559 4.68948 12.9259 6.00487 11.6099 6.40006" fill="#E8B63A"/>
<path d="M13.7524 11.9056L15.3594 15.6592C16.4652 18.2443 17.5691 20.829 18.6711 23.4132C18.7494 23.593 18.8069 23.7811 18.8425 23.9738C18.9036 24.3338 18.8385 24.7037 18.658 25.0219C18.4775 25.3401 18.1925 25.5875 17.8504 25.723C17.5151 25.855 17.1446 25.8704 16.7994 25.7668C16.4541 25.6631 16.1546 25.4465 15.9497 25.1523C15.8013 24.9068 15.6686 24.6523 15.5523 24.3904C15.3896 24.0709 15.1203 23.9624 14.7949 24.0823C14.4695 24.2021 14.363 24.4946 14.4493 24.8256C14.504 24.9987 14.5729 25.1672 14.6553 25.3292C14.9487 26.0123 15.5041 26.552 16.1992 26.8295C16.8942 27.1069 17.672 27.0994 18.3615 26.8086C19.051 26.5179 19.5957 25.9676 19.8757 25.2789C20.1557 24.5902 20.1482 23.8195 19.8547 23.1364C18.3875 19.6553 16.8986 16.1842 15.4184 12.7088C15.237 12.2808 15.0527 11.8528 14.8698 11.4248L13.7524 11.9056Z" fill="#E8B63A"/>
</svg>
