<svg width="91" height="91" viewBox="0 0 91 91" fill="none" xmlns="http://www.w3.org/2000/svg">
<path d="M87.8487 32.1281H78.9004V28.7577H87.8487C88.3493 28.7577 88.8293 28.5589 89.1833 28.2049C89.5372 27.851 89.7361 27.3709 89.7361 26.8703C89.7361 26.3698 89.5372 25.8897 89.1833 25.5357C88.8293 25.1818 88.3493 24.9829 87.8487 24.9829H78.9004V15.1667C78.9004 14.6662 78.7015 14.1861 78.3475 13.8321C77.9936 13.4782 77.5135 13.2793 77.013 13.2793H16.0093C15.7607 13.2782 15.5143 13.3262 15.2844 13.4206C15.0544 13.5149 14.8454 13.6538 14.6692 13.8291C14.493 14.0045 14.3533 14.2129 14.2579 14.4425C14.1625 14.672 14.1134 14.9182 14.1134 15.1667V55.1562H3.15972C2.67984 55.1882 2.23009 55.4014 1.90154 55.7527C1.57299 56.1039 1.3902 56.5668 1.3902 57.0478C1.3902 57.5287 1.57299 57.9917 1.90154 58.3429C2.23009 58.6941 2.67984 58.9074 3.15972 58.9394H14.1134V62.3098H3.15972C2.65914 62.3098 2.17907 62.5086 1.82512 62.8626C1.47116 63.2165 1.27231 63.6966 1.27231 64.1972C1.27231 64.6978 1.47116 65.1778 1.82512 65.5318C2.17907 65.8857 2.65914 66.0846 3.15972 66.0846H14.1134V75.8334C14.1134 76.082 14.1625 76.3281 14.2579 76.5576C14.3533 76.7872 14.493 76.9956 14.6692 77.171C14.8454 77.3463 15.0544 77.4852 15.2844 77.5796C15.5143 77.6739 15.7607 77.7219 16.0093 77.7208H77.013C77.5135 77.7208 77.9936 77.5219 78.3475 77.168C78.7015 76.814 78.9004 76.334 78.9004 75.8334V35.9029H87.8487C88.3493 35.9029 88.8293 35.7041 89.1833 35.3501C89.5372 34.9962 89.7361 34.5161 89.7361 34.0155C89.7361 33.5149 89.5372 33.0349 89.1833 32.6809C88.8293 32.327 88.3493 32.1281 87.8487 32.1281ZM44.531 17.0626V25.8508C44.5311 26.2073 44.6321 26.5564 44.8224 26.8579C45.0127 27.1593 45.2845 27.4007 45.6062 27.5541C45.928 27.7074 46.2866 27.7666 46.6406 27.7246C46.9946 27.6826 47.3295 27.5413 47.6065 27.3169C48.1831 26.8454 48.8819 26.5476 49.6213 26.4583C50.3608 26.3689 51.1104 26.4918 51.7826 26.8125C52.4549 27.1331 53.0221 27.6384 53.418 28.2693C53.8139 28.9002 54.0222 29.6307 54.0186 30.3755C54.0119 30.5704 53.9922 30.7646 53.9596 30.9569C53.8149 31.5997 53.5101 32.1955 53.0735 32.689C52.6369 33.1824 52.0827 33.5576 51.4623 33.7795C50.8419 34.0014 50.1755 34.0629 49.525 33.9584C48.8744 33.8538 48.2609 33.5865 47.7413 33.1814C47.5305 33.018 47.2873 32.9016 47.0278 32.8399C46.7684 32.7782 46.4988 32.7728 46.2371 32.8238C45.9753 32.8749 45.7276 32.9813 45.5103 33.136C45.2931 33.2907 45.1115 33.49 44.9776 33.7206C44.6923 34.051 44.534 34.4722 44.531 34.9087V43.5284H38.7593C39.1381 41.9216 38.9918 40.2357 38.3418 38.7182C37.6917 37.2007 36.5723 35.9316 35.1478 35.0973C33.7233 34.263 32.0688 33.9074 30.4273 34.0827C28.7858 34.258 27.2438 34.9551 26.0277 36.0714C24.9339 36.9446 24.1031 38.1033 23.6272 39.4194C23.1513 40.7355 23.049 42.1577 23.3314 43.5284H17.8967V17.0626H44.531ZM44.531 73.9375H17.8967V66.0846H24.8228C25.3233 66.0846 25.8034 65.8857 26.1574 65.5318C26.5113 65.1778 26.7102 64.6978 26.7102 64.1972C26.7102 63.6966 26.5113 63.2165 26.1574 62.8626C25.8034 62.5086 25.3233 62.3098 24.8228 62.3098H17.8967V58.9815H24.8228C25.0818 58.9988 25.3416 58.9627 25.5861 58.8755C25.8306 58.7883 26.0546 58.6518 26.2442 58.4744C26.4338 58.2971 26.5849 58.0827 26.6883 57.8445C26.7916 57.6064 26.8449 57.3495 26.8449 57.0899C26.8449 56.8303 26.7916 56.5735 26.6883 56.3353C26.5849 56.0972 26.4338 55.8828 26.2442 55.7054C26.0546 55.5281 25.8306 55.3915 25.5861 55.3043C25.3416 55.2171 25.0818 55.181 24.8228 55.1983H17.8967V47.4717H26.272C26.568 47.4635 26.8574 47.3824 27.1146 47.2358C27.4213 47.1592 27.7038 47.0064 27.9358 46.7916C28.1677 46.5768 28.3418 46.307 28.4418 46.007C28.5417 45.7071 28.5644 45.3868 28.5077 45.0758C28.451 44.7648 28.3167 44.4731 28.1173 44.2277C27.5049 43.4927 27.1873 42.5564 27.2262 41.6004C27.2651 40.6444 27.6578 39.737 28.328 39.0542C29.0307 38.4477 29.9274 38.1129 30.8557 38.1105C31.5928 38.1036 32.3168 38.3047 32.9447 38.6908C33.5726 39.0768 34.0789 39.6322 34.4053 40.293C34.7318 40.9539 34.8652 41.6934 34.7903 42.4267C34.7154 43.16 34.4351 43.8572 33.9818 44.4384C33.7681 44.7181 33.6368 45.0519 33.6029 45.4022C33.5689 45.7525 33.6336 46.1054 33.7896 46.4209C33.9456 46.7364 34.1867 47.002 34.4857 47.1876C34.7847 47.3733 35.1296 47.4717 35.4816 47.4717H44.531V53.0834C44.0195 52.965 43.4971 52.9001 42.9722 52.8896C41.151 52.9018 39.3924 53.5556 38.0054 54.7361C36.6185 55.9165 35.6921 57.548 35.3889 59.3438C35.2811 59.8708 35.2246 60.4069 35.2204 60.9448C35.2226 62.9948 36.0385 64.96 37.4889 66.4088C38.9392 67.8576 40.9054 68.6713 42.9554 68.6713C43.5051 68.6722 44.0532 68.6129 44.59 68.4944L44.531 73.9375ZM48.4828 73.9375V65.1493C48.4827 64.7928 48.3816 64.4437 48.1914 64.1423C48.0011 63.8408 47.7293 63.5994 47.4075 63.446C47.0858 63.2927 46.7271 63.2335 46.3731 63.2755C46.0192 63.3175 45.6843 63.4588 45.4073 63.6832C44.8344 64.1534 44.1399 64.4515 43.4043 64.5428C42.6688 64.6341 41.9225 64.5149 41.252 64.1991C40.5815 63.8832 40.0143 63.3837 39.6164 62.7584C39.2184 62.1332 39.0059 61.4079 39.0036 60.6667C39.0057 60.4743 39.0254 60.2825 39.0626 60.0938C39.261 59.2252 39.7483 58.4497 40.4447 57.8941C41.1411 57.3385 42.0055 57.0357 42.8964 57.0351C43.7601 57.044 44.5962 57.3405 45.2725 57.8777C45.5526 58.0929 45.8875 58.2251 46.239 58.2593C46.5905 58.2936 46.9446 58.2285 47.261 58.0715C47.5844 57.8904 47.8501 57.6217 48.0278 57.2963C48.3063 56.9593 48.4609 56.5371 48.4659 56.0999V47.4717H54.263C54.0767 48.5387 54.1132 49.6328 54.3701 50.685C54.6271 51.7373 55.0989 52.725 55.756 53.5861C56.4131 54.4472 57.2412 55.163 58.1883 55.6886C59.1354 56.2142 60.181 56.5382 61.2594 56.6402C62.3377 56.7422 63.4255 56.62 64.4544 56.2813C65.4832 55.9427 66.4309 55.3948 67.2378 54.6722C68.0447 53.9496 68.6934 53.0679 69.1431 52.0825C69.5928 51.0971 69.8338 50.0293 69.8509 48.9463C69.8518 48.4508 69.801 47.9566 69.6992 47.4717H75.1171V73.9375H48.4828ZM75.1171 43.5284H66.7502C66.4553 43.5367 66.1666 43.6147 65.9076 43.7559C65.5986 43.8306 65.3135 43.9821 65.0788 44.1964C64.844 44.4107 64.6671 44.6808 64.5646 44.9816C64.4621 45.2825 64.4372 45.6044 64.4923 45.9174C64.5473 46.2305 64.6806 46.5246 64.8796 46.7724C65.2684 47.334 65.4932 47.9928 65.529 48.6749C65.5648 49.357 65.4102 50.0357 65.0824 50.6349C64.7546 51.2342 64.2665 51.7305 63.6728 52.0683C63.0791 52.4061 62.4032 52.5721 61.7205 52.5477C61.0379 52.5233 60.3755 52.3095 59.8074 51.9302C59.2393 51.551 58.7879 51.0211 58.5037 50.4C58.2195 49.7789 58.1136 49.0909 58.198 48.4131C58.2824 47.7352 58.5536 47.0942 58.9815 46.5617C59.1952 46.2821 59.3264 45.9482 59.3604 45.5979C59.3943 45.2476 59.3296 44.8947 59.1736 44.5792C59.0176 44.2637 58.7765 43.9982 58.4775 43.8125C58.1786 43.6268 57.8336 43.5284 57.4817 43.5284H48.4828V37.9167C49.5015 38.1397 50.5551 38.1522 51.5789 37.9536C52.6026 37.7549 53.5751 37.3493 54.4366 36.7616C55.298 36.1739 56.0304 35.4164 56.5888 34.5356C57.1472 33.6548 57.5198 32.6693 57.6839 31.6394C57.9478 30.3783 57.8922 29.0711 57.5221 27.8369C57.1519 26.6028 56.479 25.4807 55.5646 24.573C54.6501 23.6653 53.5232 23.0006 52.2863 22.6396C51.0495 22.2785 49.742 22.2325 48.4828 22.5057V17.0626H75.1171V24.9829H66.1772C65.6766 24.9829 65.1966 25.1818 64.8426 25.5357C64.4887 25.8897 64.2898 26.3698 64.2898 26.8703C64.2898 27.3709 64.4887 27.851 64.8426 28.2049C65.1966 28.5589 65.6766 28.7577 66.1772 28.7577H75.1171V32.1281H66.1772C65.6766 32.1281 65.1966 32.327 64.8426 32.6809C64.4887 33.0349 64.2898 33.5149 64.2898 34.0155C64.2898 34.5161 64.4887 34.9962 64.8426 35.3501C65.1966 35.7041 65.6766 35.9029 66.1772 35.9029H75.1171V43.5284Z" fill="#652f87"/>
</svg>
