<svg width="25" height="24" viewBox="0 0 25 24" fill="none" xmlns="http://www.w3.org/2000/svg">
<path fill-rule="evenodd" clip-rule="evenodd" d="M17.2748 3C18.6158 3 19.9058 3.53 20.8548 4.481C21.8048 5.43 22.3358 6.71 22.3358 8.05V15.95C22.3358 18.74 20.0658 21 17.2748 21H7.39585C4.60485 21 2.33585 18.74 2.33585 15.95V8.05C2.33585 5.26 4.59485 3 7.39585 3H17.2748ZM18.8658 9.54L18.9458 9.46C19.1848 9.17 19.1848 8.75 18.9348 8.46C18.7958 8.311 18.6048 8.22 18.4058 8.2C18.1958 8.189 17.9958 8.26 17.8448 8.4L13.3358 12C12.7558 12.481 11.9248 12.481 11.3358 12L6.83585 8.4C6.52485 8.17 6.09485 8.2 5.83585 8.47C5.56585 8.74 5.53585 9.17 5.76485 9.47L5.89585 9.6L10.4458 13.15C11.0058 13.59 11.6848 13.83 12.3958 13.83C13.1048 13.83 13.7958 13.59 14.3548 13.15L18.8658 9.54Z" fill="#D2B3E5"/>
</svg>
