<svg width="25" height="24" viewBox="0 0 25 24" fill="none" xmlns="http://www.w3.org/2000/svg">
<path d="M7.15804 4.33088C7.13022 3.00776 6.22713 2 4.76066 2C3.29418 2 2.33545 3.00776 2.33545 4.33088C2.33545 5.62659 3.26584 6.66337 4.70501 6.66337H4.73241C6.22713 6.66337 7.15804 5.62659 7.15804 4.33088Z" fill="#D2B3E5"/>
<path d="M6.87571 8.5053H2.58894V21.9997H6.87571V8.5053Z" fill="#D2B3E5"/>
<path d="M17.3998 8.18839C20.2207 8.18839 22.3354 10.1175 22.3354 14.2624L22.3353 21.9996H18.0487V14.7801C18.0487 12.9668 17.4284 11.7294 15.8765 11.7294C14.6922 11.7294 13.9868 12.5635 13.677 13.3693C13.5636 13.658 13.5358 14.0603 13.5358 14.4636V22H9.24854C9.24854 22 9.30504 9.77186 9.24854 8.50562H13.5358V10.417C14.1048 9.49816 15.1238 8.18839 17.3998 8.18839Z" fill="#D2B3E5"/>
</svg>
