<svg width="25" height="24" viewBox="0 0 25 24" fill="none" xmlns="http://www.w3.org/2000/svg">
<path fill-rule="evenodd" clip-rule="evenodd" d="M5.34391 10.6946C5.34391 10.0759 5.35136 9.45726 5.35884 8.83575L5.35884 8.83574C5.36264 8.52065 5.36644 8.20482 5.36929 7.88788C5.36929 4.48258 7.50101 1.99976 10.4448 1.99976H14.2261C17.1699 1.99976 19.3016 4.48258 19.3016 7.88788C19.327 9.25196 19.3354 10.616 19.3354 11.9899C19.3354 13.3638 19.327 14.7475 19.3016 16.1116C19.3016 19.5169 17.1699 21.9998 14.2261 21.9998H10.4448C7.50101 21.9998 5.36929 19.5169 5.36929 16.1018C5.35237 14.8162 5.33545 13.5012 5.33545 12.1666L5.34391 10.6946ZM13.6154 19.64V19.8C13.6154 20.4736 13.0523 21 12.3355 21C11.6357 21 11.0555 20.4736 11.0555 19.8V19.64C11.0555 18.984 11.6357 18.44 12.3355 18.44C13.0523 18.44 13.6154 18.984 13.6154 19.64ZM7.35216 8.4434C7.34681 8.84738 7.34149 9.2495 7.34149 9.65162L7.33545 10.6084C7.33545 11.476 7.34753 12.3307 7.35962 13.1663C7.35962 15.3862 8.88228 17 10.985 17H13.6859C15.7886 17 17.3113 15.3862 17.3113 13.1727C17.3294 12.2861 17.3354 11.3867 17.3354 10.4936C17.3354 9.60059 17.3294 8.71393 17.3113 7.82728C17.3113 5.61384 15.7886 4 13.6859 4H10.985C8.88228 4 7.35962 5.61384 7.35962 7.82728C7.35759 8.0333 7.35487 8.23859 7.35216 8.4434Z" fill="#D2B3E5"/>
</svg>
