<svg width="80" height="80" viewBox="0 0 80 80" fill="none" xmlns="http://www.w3.org/2000/svg">
<path d="M77.6222 22.7185L62.5704 18.0666C61.5249 17.7482 60.4084 17.7482 59.363 18.0666L45.5407 22.2222L31.1111 17.7037C30.0432 17.3667 28.8975 17.3667 27.8296 17.7037L13.0148 22.3407C12.761 22.42 12.5386 22.5771 12.379 22.7898C12.2195 23.0025 12.1309 23.2601 12.1259 23.5259L11.8074 38.2592L10.1111 39.1333C9.86106 39.2657 9.66218 39.4775 9.54582 39.7354C9.42946 39.9932 9.40224 40.2825 9.46846 40.5576C9.53468 40.8326 9.69056 41.0778 9.91154 41.2545C10.1325 41.4312 10.406 41.5293 10.6889 41.5333C10.8901 41.5344 11.0885 41.486 11.2667 41.3926L11.7481 41.1481L11.6518 45.4444H9.25926C9.08427 45.431 8.90841 45.454 8.74271 45.5117C8.577 45.5695 8.42501 45.6609 8.29628 45.7802C8.16754 45.8995 8.06484 46.044 7.9946 46.2049C7.92436 46.3657 7.88811 46.5393 7.88811 46.7148C7.88811 46.8903 7.92436 47.0639 7.9946 47.2247C8.06484 47.3855 8.16754 47.5301 8.29628 47.6494C8.42501 47.7687 8.577 47.86 8.74271 47.9178C8.90841 47.9756 9.08427 47.9985 9.25926 47.9852H11.5556L11.4963 50.9481H9.27407C9.09909 50.9347 8.92323 50.9577 8.75752 51.0155C8.59181 51.0732 8.43983 51.1646 8.31109 51.2839C8.18236 51.4032 8.07965 51.5477 8.00941 51.7086C7.93918 51.8694 7.90292 52.043 7.90292 52.2185C7.90292 52.394 7.93918 52.5676 8.00941 52.7284C8.07965 52.8892 8.18236 53.0338 8.31109 53.1531C8.43983 53.2724 8.59181 53.3638 8.75752 53.4215C8.92323 53.4793 9.09909 53.5022 9.27407 53.4889H11.4519L11.2444 63.3926C11.2357 63.5942 11.2755 63.7951 11.3606 63.9781C11.4457 64.1612 11.5735 64.3211 11.7333 64.4444C11.9467 64.6058 12.2065 64.6941 12.4741 64.6963C12.6025 64.6983 12.7303 64.6783 12.8519 64.637L27.7037 60C28.2777 59.8211 28.8926 59.8211 29.4667 60L44.2815 64.6296C44.3082 64.6365 44.3362 64.6365 44.363 64.6296H44.5037H44.7926H44.9556H45.0296L59.2593 60.3481C59.8195 60.1783 60.4175 60.1783 60.9778 60.3481L76.037 65C76.2248 65.0599 76.4241 65.0744 76.6186 65.0422C76.8131 65.01 76.9971 64.932 77.1556 64.8148C77.3146 64.7002 77.4449 64.5502 77.5362 64.3767C77.6275 64.2031 77.6772 64.0108 77.6815 63.8148L78.5185 23.9555C78.5229 23.6802 78.4379 23.4108 78.2763 23.1878C78.1147 22.9648 77.8852 22.8001 77.6222 22.7185ZM28.5852 57.3111C28.0298 57.3102 27.4776 57.3952 26.9481 57.5629L13.8074 61.6666L13.9778 53.474H26.0222C26.3424 53.4496 26.6415 53.3051 26.8597 53.0696C27.078 52.834 27.1992 52.5248 27.1992 52.2037C27.1992 51.8826 27.078 51.5733 26.8597 51.3378C26.6415 51.1022 26.3424 50.9578 26.0222 50.9333H14.0741L14.1333 47.9703H26.0593C26.3794 47.9459 26.6785 47.8014 26.8968 47.5659C27.115 47.3303 27.2363 47.0211 27.2363 46.7C27.2363 46.3789 27.115 46.0696 26.8968 45.8341C26.6785 45.5985 26.3794 45.4541 26.0593 45.4296H14.2074L14.3259 39.8148L16.7926 38.5481C17.0912 38.3841 17.3124 38.1081 17.4076 37.781C17.5027 37.4538 17.464 37.1023 17.3 36.8037C17.136 36.5051 16.86 36.2838 16.5329 36.1887C16.2057 36.0935 15.8542 36.1322 15.5556 36.2963L14.3111 36.9333L14.5778 24.4815L28.5407 20.1185C29.1148 19.9396 29.7297 19.9396 30.3037 20.1185L44.2222 24.474V24.5407L43.8667 41.2074C43.6155 41.274 43.3909 41.4162 43.2234 41.6148C43.0558 41.8133 42.9533 42.0586 42.9299 42.3174C42.9064 42.5762 42.9631 42.8359 43.0923 43.0613C43.2214 43.2868 43.4168 43.4671 43.6518 43.5778L43.8148 43.6518L43.4296 61.6815L30.2296 57.5629C29.6976 57.3951 29.143 57.3102 28.5852 57.3111ZM75.163 62.0815L61.7185 57.9259C60.6727 57.6101 59.5569 57.6101 58.5111 57.9259L45.9852 61.7037L46.3481 44.8296L49.3111 46.1926C49.4758 46.2689 49.6556 46.3069 49.837 46.3037C50.1345 46.3158 50.4268 46.2227 50.6624 46.0408C50.8981 45.8588 51.0622 45.5997 51.1258 45.3088C51.1895 45.018 51.1487 44.714 51.0105 44.4503C50.8724 44.1866 50.6457 43.9799 50.3704 43.8666L46.4 42.0592L46.7778 24.5037L60.1111 20.4889C60.6733 20.3149 61.2749 20.3149 61.837 20.4889L75.9704 24.8518L75.163 62.0815Z" fill="#652f87"/>
<path d="M66.2 34.0741C66.3176 34.1919 66.4573 34.2853 66.6111 34.3491C66.7649 34.4129 66.9298 34.4457 67.0963 34.4457C67.2628 34.4457 67.4276 34.4129 67.5814 34.3491C67.7352 34.2853 67.8749 34.1919 67.9926 34.0741L69.6889 32.3778L71.3778 34.0741C71.6192 34.3106 71.9435 34.4435 72.2815 34.4444C72.5321 34.4426 72.7767 34.3669 72.9845 34.2268C73.1924 34.0867 73.3542 33.8884 73.4499 33.6567C73.5456 33.425 73.5708 33.1703 73.5224 32.9243C73.474 32.6784 73.3541 32.4522 73.1778 32.2741L71.4815 30.563L73.1778 28.8889C73.4155 28.6502 73.5486 28.3268 73.5479 27.99C73.5472 27.6531 73.4128 27.3303 73.1741 27.0926C72.9354 26.8549 72.612 26.7217 72.2751 26.7224C71.9383 26.7231 71.6155 26.8576 71.3778 27.0963L69.6889 28.7852L67.9926 27.0963C67.8749 26.9786 67.7351 26.8852 67.5814 26.8215C67.4276 26.7578 67.2627 26.725 67.0963 26.725C66.7601 26.725 66.4377 26.8586 66.2 27.0963C65.9623 27.334 65.8287 27.6564 65.8287 27.9926C65.8287 28.3288 65.9623 28.6512 66.2 28.8889L67.8963 30.5852L66.2 32.2741C65.9616 32.5129 65.8277 32.8366 65.8277 33.1741C65.8277 33.5115 65.9616 33.8352 66.2 34.0741Z" fill="#652f87"/>
<path d="M4.55556 41.963L1.72593 43.4445C1.47537 43.5771 1.27621 43.7896 1.16 44.0482C1.04379 44.3068 1.01715 44.5968 1.08431 44.8722C1.15148 45.1477 1.3086 45.3929 1.5308 45.569C1.75301 45.7451 2.0276 45.842 2.31111 45.8445C2.51222 45.8446 2.7104 45.7964 2.88889 45.7037L5.71111 44.2222C6.01071 44.069 6.23716 43.803 6.34066 43.4828C6.44415 43.1626 6.4162 42.8144 6.26297 42.5148C6.10973 42.2152 5.84376 41.9888 5.52356 41.8853C5.20335 41.7818 4.85516 41.8097 4.55556 41.963Z" fill="#652f87"/>
<path d="M27.9111 33.3333L25.037 32.0074C24.863 31.9218 24.6717 31.8773 24.4778 31.8773C24.2839 31.8773 24.0925 31.9218 23.9185 32.0074L21.0963 33.4889C20.947 33.5642 20.814 33.6684 20.7051 33.7953C20.5963 33.9223 20.5136 34.0696 20.462 34.2287C20.4103 34.3878 20.3907 34.5555 20.4042 34.7222C20.4177 34.8889 20.4641 35.0513 20.5407 35.2C20.6488 35.4073 20.8116 35.581 21.0114 35.7025C21.2111 35.8239 21.4403 35.8884 21.6741 35.8889C21.8752 35.8891 22.0734 35.8408 22.2519 35.7481L24.5259 34.5852L26.8296 35.6667C27.1391 35.8101 27.4928 35.8247 27.813 35.7073C28.1332 35.5899 28.3936 35.3502 28.537 35.0407C28.6805 34.7313 28.6951 34.3776 28.5777 34.0574C28.4603 33.7372 28.2205 33.4767 27.9111 33.3333Z" fill="#652f87"/>
<path d="M39.1407 38.6444L33.5259 36C33.3751 35.929 33.2119 35.8884 33.0454 35.8805C32.8789 35.8726 32.7125 35.8975 32.5557 35.9539C32.3988 36.0103 32.2547 36.0971 32.1314 36.2092C32.0081 36.3213 31.908 36.4566 31.837 36.6074C31.766 36.7582 31.7254 36.9215 31.7175 37.0879C31.7096 37.2544 31.7345 37.4208 31.791 37.5776C31.8474 37.7345 31.9341 37.8787 32.0462 38.002C32.1583 38.1253 32.2937 38.2253 32.4444 38.2963L38.0518 40.9407C38.221 41.0208 38.4054 41.0638 38.5926 41.0667C38.8809 41.0657 39.1604 40.967 39.3854 40.7867C39.6103 40.6063 39.7675 40.355 39.8311 40.0738C39.8948 39.7926 39.8611 39.4981 39.7357 39.2385C39.6103 38.9788 39.4006 38.7694 39.1407 38.6444Z" fill="#652f87"/>
<path d="M56.0222 46.4297C55.8705 46.3611 55.7067 46.3231 55.5403 46.3178C55.3738 46.3125 55.208 46.34 55.0522 46.3989C54.8964 46.4577 54.7537 46.5466 54.6322 46.6605C54.5108 46.7745 54.413 46.9112 54.3444 47.063C54.2759 47.2147 54.2378 47.3785 54.2326 47.545C54.2273 47.7114 54.2548 47.8773 54.3136 48.033C54.3724 48.1888 54.4614 48.3315 54.5753 48.453C54.6893 48.5744 54.826 48.6722 54.9778 48.7408L60.6222 51.3111C60.788 51.3839 60.9671 51.4217 61.1481 51.4223C61.4386 51.4239 61.7209 51.3257 61.9475 51.144C62.1742 50.9623 62.3315 50.7082 62.3932 50.4244C62.4548 50.1405 62.417 49.8441 62.2861 49.5847C62.1552 49.3254 61.9391 49.119 61.6741 49L56.0222 46.4297Z" fill="#652f87"/>
<path d="M66.2741 53.8741L69.163 55.1926C69.3288 55.2654 69.5078 55.3032 69.6889 55.3037C69.8561 55.3047 70.0219 55.2724 70.1765 55.2086C70.3311 55.1448 70.4715 55.0509 70.5894 54.9323C70.7073 54.8137 70.8004 54.6728 70.8633 54.5178C70.9262 54.3628 70.9575 54.1969 70.9556 54.0296V50.8593C70.9556 50.5233 70.8221 50.2011 70.5846 49.9636C70.347 49.726 70.0248 49.5926 69.6889 49.5926C69.353 49.5926 69.0308 49.726 68.7932 49.9636C68.5557 50.2011 68.4222 50.5233 68.4222 50.8593V52.0593L67.3259 51.563C67.1742 51.4939 67.0103 51.4554 66.8437 51.4497C66.6771 51.4439 66.5109 51.4711 66.3548 51.5295C66.0394 51.6476 65.7839 51.8861 65.6445 52.1926C65.505 52.4991 65.4929 52.8484 65.611 53.1637C65.7291 53.4791 65.9676 53.7346 66.2741 53.8741Z" fill="#652f87"/>
<path d="M69.6889 41.1703C69.5219 41.1703 69.3566 41.2034 69.2024 41.2675C69.0483 41.3316 68.9083 41.4256 68.7906 41.544C68.6729 41.6624 68.5797 41.8029 68.5165 41.9574C68.4533 42.1119 68.4213 42.2775 68.4222 42.4444V46.6666C68.4222 47.0026 68.5557 47.3248 68.7932 47.5623C69.0308 47.7999 69.353 47.9333 69.6889 47.9333C70.0248 47.9333 70.347 47.7999 70.5846 47.5623C70.8221 47.3248 70.9556 47.0026 70.9556 46.6666V42.4444C70.9565 42.2775 70.9245 42.1119 70.8613 41.9574C70.7981 41.8029 70.7049 41.6624 70.5872 41.544C70.4695 41.4256 70.3295 41.3316 70.1753 41.2675C70.0212 41.2034 69.8559 41.1703 69.6889 41.1703Z" fill="#652f87"/>
<path d="M69.6889 33.7852C69.5219 33.7852 69.3566 33.8182 69.2024 33.8823C69.0483 33.9464 68.9083 34.0404 68.7906 34.1588C68.6729 34.2772 68.5797 34.4177 68.5165 34.5722C68.4533 34.7268 68.4213 34.8923 68.4222 35.0592V38.237C68.4222 38.5729 68.5557 38.8951 68.7932 39.1327C69.0308 39.3702 69.353 39.5037 69.6889 39.5037C70.0248 39.5037 70.347 39.3702 70.5846 39.1327C70.8221 38.8951 70.9556 38.5729 70.9556 38.237V35.0592C70.9565 34.8923 70.9245 34.7268 70.8613 34.5722C70.7981 34.4177 70.7049 34.2772 70.5872 34.1588C70.4695 34.0404 70.3295 33.9464 70.1753 33.8823C70.0212 33.8182 69.8559 33.7852 69.6889 33.7852Z" fill="#652f87"/>
</svg>
