<svg width="25" height="24" viewBox="0 0 25 24" fill="none" xmlns="http://www.w3.org/2000/svg">
<path opacity="0.1" fill-rule="evenodd" clip-rule="evenodd" d="M0.212769 12C0.212769 5.37258 5.58535 0 12.2128 0C18.8402 0 24.2128 5.37258 24.2128 12C24.2128 18.6274 18.8402 24 12.2128 24C5.58535 24 0.212769 18.6274 0.212769 12Z" fill="white"/>
<path fill-rule="evenodd" clip-rule="evenodd" d="M12.2133 6C10.5838 6 10.3793 6.00713 9.73931 6.03625C9.10055 6.0655 8.66454 6.16663 8.28304 6.315C7.88841 6.46825 7.55366 6.67326 7.22015 7.00689C6.8864 7.34039 6.6814 7.67514 6.52765 8.06965C6.3789 8.45128 6.27764 8.8874 6.24889 9.52591C6.22027 10.1659 6.21277 10.3705 6.21277 12.0001C6.21277 13.6296 6.22002 13.8335 6.24902 14.4735C6.27839 15.1122 6.37952 15.5482 6.52777 15.9297C6.68115 16.3244 6.88615 16.6591 7.21978 16.9926C7.55316 17.3264 7.88791 17.5319 8.28229 17.6851C8.66404 17.8335 9.10017 17.9346 9.7388 17.9639C10.3788 17.993 10.5832 18.0001 12.2126 18.0001C13.8422 18.0001 14.0461 17.993 14.6861 17.9639C15.3249 17.9346 15.7614 17.8335 16.1431 17.6851C16.5376 17.5319 16.8719 17.3264 17.2053 16.9926C17.539 16.6591 17.744 16.3244 17.8978 15.9299C18.0453 15.5482 18.1465 15.1121 18.1765 14.4736C18.2053 13.8336 18.2128 13.6296 18.2128 12.0001C18.2128 10.3705 18.2053 10.166 18.1765 9.52604C18.1465 8.88728 18.0453 8.45128 17.8978 8.06977C17.744 7.67514 17.539 7.34039 17.2053 7.00689C16.8715 6.67313 16.5378 6.46813 16.1427 6.315C15.7602 6.16663 15.324 6.0655 14.6852 6.03625C14.0452 6.00713 13.8415 6 12.2115 6H12.2133ZM11.675 7.08124C11.8348 7.08099 12.0131 7.08124 12.2133 7.08124C13.8153 7.08124 14.0052 7.08699 14.6378 7.11574C15.2228 7.1425 15.5403 7.24025 15.7518 7.32237C16.0318 7.43112 16.2315 7.56112 16.4413 7.77113C16.6514 7.98113 16.7814 8.18113 16.8904 8.46113C16.9725 8.67239 17.0704 8.98989 17.097 9.5749C17.1257 10.2074 17.132 10.3974 17.132 11.9987C17.132 13.5999 17.1257 13.7899 17.097 14.4224C17.0702 15.0075 16.9725 15.325 16.8904 15.5362C16.7816 15.8162 16.6514 16.0156 16.4413 16.2255C16.2313 16.4355 16.032 16.5655 15.7518 16.6742C15.5406 16.7567 15.2228 16.8542 14.6378 16.881C14.0053 16.9097 13.8153 16.916 12.2133 16.916C10.6112 16.916 10.4213 16.9097 9.78878 16.881C9.20377 16.854 8.88627 16.7562 8.67464 16.6741C8.39464 16.5653 8.19464 16.4353 7.98464 16.2253C7.77463 16.0153 7.64463 15.8158 7.53563 15.5357C7.45351 15.3245 7.35563 15.007 7.329 14.4219C7.30025 13.7894 7.2945 13.5994 7.2945 11.9972C7.2945 10.3949 7.30025 10.2059 7.329 9.5734C7.35575 8.98839 7.45351 8.67089 7.53563 8.45938C7.64438 8.17938 7.77463 7.97938 7.98464 7.76938C8.19464 7.55937 8.39464 7.42937 8.67464 7.32037C8.88615 7.23787 9.20377 7.14037 9.78878 7.11349C10.3423 7.08849 10.5568 7.08099 11.675 7.07974V7.08124ZM15.4161 8.07751C15.0186 8.07751 14.6961 8.39964 14.6961 8.79726C14.6961 9.19477 15.0186 9.51727 15.4161 9.51727C15.8136 9.51727 16.1361 9.19477 16.1361 8.79726C16.1361 8.39976 15.8136 8.07751 15.4161 8.07751ZM12.2133 8.91876C10.5117 8.91876 9.13206 10.2984 9.13206 12C9.13206 13.7017 10.5117 15.0807 12.2133 15.0807C13.915 15.0807 15.2941 13.7017 15.2941 12C15.2941 10.2984 13.915 8.91876 12.2133 8.91876ZM12.2133 10C13.3178 10 14.2133 10.8954 14.2133 12C14.2133 13.1046 13.3178 14.0001 12.2133 14.0001C11.1087 14.0001 10.2133 13.1046 10.2133 12C10.2133 10.8954 11.1087 10 12.2133 10Z" fill="white"/>
</svg>
