<svg width="25" height="24" viewBox="0 0 25 24" fill="none" xmlns="http://www.w3.org/2000/svg">
<path opacity="0.1" fill-rule="evenodd" clip-rule="evenodd" d="M0.212769 12C0.212769 5.37258 5.58535 0 12.2128 0C18.8402 0 24.2128 5.37258 24.2128 12C24.2128 18.6274 18.8402 24 12.2128 24C5.58535 24 0.212769 18.6274 0.212769 12Z" fill="white"/>
<path d="M9.10633 7.39853C9.08963 6.60466 8.54778 6 7.66789 6C6.78801 6 6.21277 6.60466 6.21277 7.39853C6.21277 8.17595 6.77101 8.79802 7.63451 8.79802H7.65094C8.54778 8.79802 9.10633 8.17595 9.10633 7.39853Z" fill="white"/>
<path d="M8.93693 9.90318H6.36486V17.9998H8.93693V9.90318Z" fill="white"/>
<path d="M15.2514 9.71303C16.9439 9.71303 18.2128 10.8705 18.2128 13.3574L18.2127 17.9998H15.6407V13.6681C15.6407 12.5801 15.2685 11.8376 14.3374 11.8376C13.6268 11.8376 13.2036 12.3381 13.0177 12.8216C12.9497 12.9948 12.933 13.2362 12.933 13.4782V18H10.3606C10.3606 18 10.3945 10.6631 10.3606 9.90337H12.933V11.0502C13.2744 10.4989 13.8858 9.71303 15.2514 9.71303Z" fill="white"/>
</svg>
