<svg width="192" height="162" viewBox="0 0 192 162" fill="none" xmlns="http://www.w3.org/2000/svg">
<g id="c&#195;&#169;os-9 (1) 1">
<path id="Vector" d="M82.5684 144.64C79.2574 146.055 75.6278 146.577 72.0138 146.159C68.3998 145.741 64.9175 144.395 61.8874 142.246L61.461 142.427C56.4506 144.554 50.8634 144.963 45.5068 143.593C40.1502 142.223 35.3018 139.146 31.6621 134.807C28.0225 130.467 25.7802 125.09 25.2594 119.453C24.7385 113.815 25.9661 108.21 28.7646 103.445C25.45 95.5501 25.2571 86.7222 28.2279 78.8843C31.1987 71.0465 37.0925 64.8339 44.6255 61.5996C45.4315 56.7563 47.3906 52.2301 50.3294 48.4218C53.2681 44.6135 57.0958 41.6405 61.4736 39.7662C67.4469 37.2063 74.1512 36.8434 80.4863 38.7372C81.8973 35.0489 84.0217 31.7135 86.7336 28.9288C89.4455 26.1441 92.6898 23.9667 96.2739 22.5259C99.858 21.0851 103.709 20.4102 107.599 20.5411C111.488 20.6719 115.338 21.606 118.918 23.288C122.26 20.5167 126.287 18.7362 130.583 18.1294C134.88 17.5225 139.292 18.1112 143.366 19.8349C147.44 21.5586 151.029 24.3553 153.764 27.9375C156.5 31.5197 158.283 35.7583 158.93 40.2178C161.726 41.298 164.293 42.9559 166.469 45.0874C168.645 47.2189 170.384 49.7779 171.576 52.6033C173.213 56.4656 173.782 60.6895 173.219 64.7968C172.655 68.904 170.982 72.7304 168.388 75.8427C172.953 83.3018 180.703 89.2578 180.786 89.3214C181.416 89.7985 181.852 90.5025 182 91.2865C182.77 95.3447 179.752 98.472 177.851 99.6794C177.576 99.856 177.273 99.9847 176.955 100.06C166.648 102.413 159.035 96.3522 155.168 92.1645C153.995 92.6326 152.77 92.9589 151.517 93.1372C150.541 95.9675 149.006 98.5431 147.007 100.705C145.007 102.867 142.586 104.569 139.891 105.705C134.668 107.91 128.749 107.886 123.406 105.638C123.081 108.915 122.053 112.054 120.394 114.828C118.736 117.603 116.489 119.944 113.815 121.683C111.142 123.422 108.108 124.516 104.934 124.885C101.759 125.255 98.5225 124.891 95.4569 123.82C95.6321 128.29 94.4958 132.669 92.1963 136.383C89.8969 140.098 86.5414 142.975 82.5684 144.64ZM60.9333 135.787C61.4327 135.575 61.9831 135.51 62.525 135.598C63.0669 135.687 63.5796 135.926 64.0077 136.289C66.6592 138.545 69.9216 139.879 73.3071 140.091C76.6925 140.302 80.0191 139.381 82.7896 137.463C85.56 135.546 87.6255 132.736 88.6771 129.454C89.7288 126.171 89.7102 122.592 88.624 119.253C88.4256 118.638 88.4166 117.98 88.5982 117.372C88.7798 116.764 89.1429 116.235 89.6369 115.86C90.131 115.484 90.7312 115.281 91.354 115.278C91.9768 115.275 92.5911 115.473 93.1111 115.843C95.6409 117.668 98.608 118.711 101.651 118.845C104.694 118.98 107.682 118.2 110.25 116.601C112.818 115.002 114.856 112.652 116.115 109.839C117.374 107.026 117.8 103.87 117.341 100.756C117.252 100.155 117.336 99.5464 117.582 99.0053C117.828 98.4641 118.226 98.0146 118.725 97.7125C119.225 97.4105 119.804 97.2693 120.391 97.3066C120.977 97.3439 121.546 97.558 122.026 97.9222C124.112 99.5065 126.526 100.554 129.059 100.973C131.591 101.392 134.165 101.171 136.558 100.328C138.95 99.4851 141.088 98.0464 142.786 96.1366C144.484 94.2269 145.691 91.9039 146.301 89.3695C146.458 88.7242 146.816 88.1557 147.321 87.7498C147.826 87.344 148.451 87.123 149.101 87.1202C150.933 87.1206 152.717 86.6209 154.272 85.672C154.886 85.3036 155.616 85.1803 156.326 85.3247C157.037 85.4692 157.681 85.8717 158.141 86.4583C160.939 90.0194 166.792 95.6696 174.925 94.1381C175.288 93.8373 175.605 93.4828 175.868 93.0856C172.848 90.5663 165.901 84.2482 162.02 76.6779C161.709 76.0722 161.597 75.3841 161.701 74.7196C161.805 74.0551 162.119 73.4512 162.595 73.0008C164.629 71.0717 166.104 68.596 166.862 65.8346C167.621 63.0733 167.635 60.1287 166.905 57.3114C166.174 54.494 164.725 51.9083 162.711 49.8269C160.696 47.7455 158.191 46.2455 155.459 45.4851C154.835 45.3108 154.276 44.9361 153.863 44.4163C153.45 43.8965 153.207 43.259 153.168 42.5978C152.95 38.9214 151.709 35.3546 149.594 32.3254C147.479 29.2961 144.579 26.9332 141.243 25.5202C137.907 24.1072 134.276 23.7041 130.786 24.3593C127.296 25.0145 124.095 26.7002 121.568 29.214C121.12 29.6606 120.542 29.9448 119.916 30.0256C119.29 30.1065 118.65 29.9799 118.086 29.664C115.028 27.9469 111.657 26.9447 108.221 26.7306C104.784 26.5166 101.369 27.0961 98.2244 28.4268C95.08 29.7574 92.2864 31.8056 90.0479 34.4214C87.8095 37.0371 86.1829 40.1542 85.2871 43.5446C85.1793 43.956 84.9886 44.337 84.7271 44.6632C84.4656 44.9893 84.1391 45.2534 83.7686 45.4384C83.398 45.6235 82.9916 45.7255 82.5754 45.7378C82.1591 45.7502 81.7422 45.6727 81.3514 45.5102C78.0527 44.1305 74.5147 43.5387 71.0089 43.7801C67.5032 44.0215 64.123 45.0897 61.1277 46.9027C58.1325 48.7157 55.6018 51.2253 53.7301 54.2388C51.8583 57.2524 50.6952 60.6898 50.3301 64.2872C50.2678 64.851 50.0565 65.3818 49.7191 65.822C49.3817 66.2622 48.9309 66.5952 48.4156 66.7848C47.9764 66.9427 47.5389 67.1114 47.1054 67.2959C40.9863 69.907 36.1992 74.9475 33.7947 81.311C31.3903 87.6744 31.565 94.8408 34.2806 101.237C34.4597 101.658 34.6367 102.074 34.8443 102.477C35.0888 102.98 35.1988 103.538 35.1626 104.092C35.1263 104.646 34.9453 105.174 34.6385 105.622C32.1831 109.211 30.958 113.565 31.1496 118.023C31.3412 122.481 32.939 126.798 35.6999 130.317C38.4609 133.837 42.2339 136.366 46.445 137.521C50.6561 138.675 55.0749 138.392 59.0292 136.713C59.5758 136.481 60.1169 136.216 60.6841 135.907C60.771 135.876 60.8485 135.823 60.9333 135.787Z" fill="white"/>
<path id="Vector_2" d="M40.3681 105.209C40.1605 104.388 39.8518 103.473 39.7243 103.088C39.3205 102.179 38.8553 97.5028 38.9856 96.1743C40.1867 85.5865 51.9894 80.8105 59.7963 87.7971C62.6474 90.2923 61.1973 92.3248 57.7106 90.7948C53.5938 89.0591 52.4776 88.764 50.0727 88.9388C45.934 89.3487 45.5762 90.2014 46.4107 97.746C46.6362 99.3939 46.967 101.145 47.1411 101.574C47.3152 102.003 47.7734 102.961 48.0176 103.634C50.3787 109.482 56.8126 116.492 61.836 118.874C62.3286 119.085 62.7964 119.356 63.229 119.682C63.7379 120.145 65.7316 120.776 67.0253 120.952C67.6096 121.017 68.2677 121.086 68.6028 121.115C71.8245 121.682 73.9809 120.198 75.772 116.384C77.5885 112.414 77.6438 109.484 75.9495 104.869C74.6985 101.655 75.8358 99.2465 78.3282 99.6041C80.3429 99.8918 82.1028 103.569 82.5554 108.687C82.7464 110.489 82.7129 111.273 81.8033 115.334C81.3568 117.463 79.0259 120.963 76.7902 122.647C64.9551 131.93 45.4404 122.567 40.3681 105.209Z" fill="white"/>
<path id="Vector_3" d="M106.736 91.6267C106.531 92.0599 103.146 95.2735 102.024 96.1026C101.584 96.4436 99.4493 98.3899 97.3149 100.502C92.6402 105.02 92.8415 104.911 90.6205 103.851C88.7479 103.014 84.8299 98.6594 74.7829 86.2523C73.6341 84.8085 71.4486 82.2102 69.9923 80.5077C66.3072 76.2428 66.2687 76.1982 69.4509 73.1813C70.4184 72.2639 71.7118 70.8764 72.3164 70.218C72.9245 69.4825 74.1369 68.173 75.0238 67.2492C75.9514 66.2905 77.0843 65.0556 77.5665 64.4232C79.4679 62.2218 80.6548 61.9637 81.9635 63.4238C83.6162 65.2606 83.1155 66.1306 77.0832 71.8659L73.1898 75.572L74.8004 77.4471C75.6868 78.523 77.6778 80.8147 79.2522 82.5657L82.0953 85.82L84.676 83.2074C88.9165 78.7869 88.9165 78.7869 90.0924 78.9346C92.7646 79.2505 92.2517 81.0005 88.2497 85.4387C87.3605 86.442 86.2674 87.7181 85.8609 88.1818L85.1636 89.1586L88.4653 92.9153C90.2712 94.9224 92.1902 97.1429 92.7279 97.7395C93.8418 98.9773 93.917 98.9773 96.2694 96.1945C97.524 94.7683 100.954 91.1897 102.805 89.5098C104.579 87.8131 107.652 89.49 106.736 91.6267ZM67.184 65.9064C66.9731 65.808 66.7872 65.6586 66.6426 65.4712C66.2196 65.0002 66.1075 64.7107 66.0223 63.288C66.0309 62.9617 65.9553 62.4765 65.9709 62.1473C65.9408 61.7822 65.8712 61.2916 65.8761 61.0483C65.894 60.8398 65.8587 60.6285 65.7737 60.435C65.3923 60.0161 66.1149 57.5752 66.7156 57.1626C67.635 56.5243 68.8693 57.7312 68.9097 59.3561C69.0138 60.839 69.284 62.3099 69.715 63.7393C70.1559 65.1415 70.0135 65.7485 69.1882 66.1433C68.3628 66.5382 67.917 66.5564 67.494 66.0854C67.4093 65.9958 67.3013 65.9335 67.184 65.9064Z" fill="white"/>
<path id="Vector_4" d="M112.445 48.6112C115.397 49.8314 115.896 50.18 118.784 52.9124C120.368 54.4062 122.452 57.6087 123.946 61.0013C125.134 63.655 125.173 63.8852 125.096 67.3247C125.078 68.0585 125.098 68.7939 125.157 69.5279C125.587 75.4164 121.108 81.4731 115.362 82.7415C114.127 82.9757 112.858 83.0137 111.6 82.8542C111.108 82.8165 110.228 82.697 109.687 82.6803C102.934 82.1451 96.7205 74.5093 95.1008 64.8517C94.9219 63.8757 94.7323 62.5933 94.6106 62.026C93.8108 57.78 96.0491 51.1918 99.1497 49.0032C103.27 45.9999 106.212 45.9366 112.445 48.6112ZM103.017 51.8189C102.029 52.9833 100.986 55.4095 101.231 55.9853C101.211 56.3828 101.161 56.7772 101.082 57.1648C100.986 57.5319 100.927 57.9094 100.907 58.2912C100.935 58.5961 100.946 58.9019 100.941 59.207C100.924 60.4741 101.009 61.7437 101.193 63.0031C101.803 66.5219 103.605 72.0124 104.759 73.7504C108.943 79.9595 113.921 81.6193 116.971 77.7812C118.902 75.3491 119.974 71.1786 119.745 66.8755C119.064 55.2114 108.44 45.6074 103.017 51.8189Z" fill="white"/>
<path id="Vector_5" d="M130.989 73.0883C130.087 72.4546 128.268 69.9329 128.36 69.4752C128.379 69.074 128.324 68.6705 128.199 68.2854C127.283 65.3214 128.55 63.0437 131.042 63.2419C132.893 63.4133 133.502 64.1712 134.198 67.421C135.271 72.2367 140.703 73.2786 144.195 69.2174C146.278 66.8342 145.96 64.2112 143.095 60.7019C142.327 59.709 138.674 57.192 137.456 56.751C131.17 54.5144 125.321 49.3947 124.657 45.5471C123.237 37.7636 130.732 32.3591 137.967 35.9881C138.41 36.2181 138.993 36.5103 139.294 36.6816C142.957 38.4158 145.569 44.5529 143.115 45.6584C141.823 46.2661 140.739 45.4693 139.832 43.3383C138.818 40.9563 138.112 40.2394 135.614 39.0848C132.42 37.5088 129.703 39.2058 129.249 42.9913C129.023 44.8865 130.403 47.5922 132.276 48.8936C133.277 49.5847 134.325 50.1997 135.41 50.7335C135.972 50.9741 138.906 52.4807 140.07 53.1827C140.535 53.4644 142.634 54.4864 145.249 55.6491C146.022 55.9801 146.62 56.4435 148.639 58.2202C150.337 59.654 151.277 61.0504 151.655 62.7496C151.811 63.523 151.985 64.4665 152.087 64.8443C152.434 66.3127 151.214 69.5263 149.865 70.9403C148.521 72.2299 143.403 74.8879 141.628 75.1637C137.663 75.8311 133.666 75.0644 130.989 73.0883Z" fill="white"/>
</g>
</svg>
