<svg width="87" height="71" viewBox="0 0 87 71" fill="none" xmlns="http://www.w3.org/2000/svg">
<path d="M69.8175 14.3183C69.5886 14.0099 69.2192 13.7883 68.7903 13.702C68.3613 13.6157 67.908 13.6719 67.5297 13.8581L59.2889 17.9472C58.3111 16.5064 57.1 15.1796 55.688 14.0028L62.2211 9.09193C62.4834 8.83707 62.6222 8.5126 62.6111 8.1799C62.6001 7.84719 62.4401 7.52932 62.1613 7.28641C61.8825 7.0435 61.5042 6.89239 61.0982 6.86168C60.6921 6.83096 60.2863 6.92275 59.9575 7.11971L53.1667 12.1686C51.5777 11.1695 49.8298 10.3512 47.9708 9.73619L54.5281 2.36665C54.7737 2.07414 54.8698 1.71491 54.7958 1.36547C54.7217 1.01602 54.4835 0.703965 54.1317 0.495739C53.78 0.287514 53.3425 0.199572 52.9125 0.250639C52.4825 0.301706 52.0939 0.487747 51.8294 0.76915L44.6519 8.86841C41.3392 8.23052 37.8925 8.21276 34.5702 8.81644C31.2478 9.42013 28.136 10.6296 25.4678 12.3543C22.7997 14.0789 20.6444 16.274 19.1635 18.775C17.6826 21.2761 16.9144 24.0182 16.9167 26.7959C16.9167 29.2828 17.539 31.7436 18.7453 34.0274L23.2 51.3632C22.9934 51.4928 22.8274 51.6604 22.7154 51.8523C22.6034 52.0443 22.5486 52.2551 22.5556 52.4677V60.9482C22.5545 61.1266 22.5966 61.3034 22.6795 61.4685C22.7625 61.6336 22.8845 61.7836 23.0387 61.9101C23.1929 62.0365 23.3762 62.1369 23.5781 62.2053C23.7799 62.2738 23.9964 62.3091 24.215 62.3091H26.7042V69.4288C26.7042 69.7897 26.8798 70.1358 27.1926 70.391C27.5053 70.6462 27.9294 70.7896 28.3717 70.7896H50.6453C50.8639 70.7896 51.0803 70.7544 51.2822 70.6859C51.484 70.6174 51.6673 70.5171 51.8215 70.3906C51.9757 70.2642 52.0978 70.1141 52.1807 69.9491C52.2636 69.784 52.3058 69.6072 52.3047 69.4288V62.3091H54.7778C55.22 62.3091 55.6442 62.1657 55.9569 61.9105C56.2696 61.6553 56.4453 61.3091 56.4453 60.9482V52.4677C56.4453 52.1068 56.2696 51.7606 55.9569 51.5054C55.6442 51.2502 55.22 51.1068 54.7778 51.1068L59.9978 34.527C61.1725 32.4582 61.8636 30.2287 62.0358 27.9529C62.0358 27.9529 62.0358 27.9529 62.0358 27.9135C62.0358 27.5519 62.0358 27.1838 62.0358 26.8156C62.0375 24.6443 61.5684 22.4899 60.6503 20.4519L69.2778 16.1854C69.65 15.9942 69.9151 15.6913 70.0161 15.342C70.1171 14.9927 70.0457 14.6251 69.8175 14.3183ZM36.4192 51.1331H26.5833L23.7075 39.9572C27.1591 42.7372 31.6166 44.5354 36.4192 45.085V50.8702C36.4107 50.9489 36.4107 51.0281 36.4192 51.1068V51.1331ZM48.9778 68.0745H30.0392V62.3091H48.9778V68.0745ZM53.1667 59.594H25.8905V53.8285H53.1667V59.594ZM42.5978 51.1068C42.6108 51.0107 42.6108 50.9137 42.5978 50.8176V45.0324C47.103 44.5305 51.3159 42.926 54.6811 40.4305L51.33 51.1068H42.5978ZM58.7492 26.7828C58.7492 27.0654 58.7492 27.335 58.7492 27.6111L56.8642 33.6067C55.5163 35.8769 53.5211 37.8503 51.0458 39.3613C48.5705 40.8724 45.6873 41.877 42.6381 42.291V32.8243C42.6381 32.4634 42.4624 32.1173 42.1497 31.8621C41.8369 31.6069 41.4128 31.4635 40.9706 31.4635H38.0464C37.6055 31.4652 37.1835 31.6094 36.8725 31.8644C36.5615 32.1194 36.3869 32.4646 36.3869 32.8243V42.291C33.2508 41.8622 30.2927 40.8088 27.7746 39.224C25.2566 37.6392 23.2565 35.572 21.9514 33.2056L20.2758 26.671C20.299 24.4134 20.9183 22.1864 22.0916 20.1418C23.2648 18.0972 24.9645 16.2831 27.0746 14.8231C29.1847 13.363 31.6558 12.2915 34.3193 11.6814C36.9829 11.0713 39.7763 10.937 42.5092 11.2877L39.6253 14.5418C39.497 14.6859 39.4049 14.8493 39.3541 15.0225C39.3033 15.1957 39.2949 15.3754 39.3293 15.5512C39.3637 15.7271 39.4403 15.8957 39.5547 16.0474C39.6691 16.1991 39.819 16.3308 39.9958 16.4352C40.2805 16.6008 40.621 16.6903 40.9706 16.6916C41.2344 16.6944 41.495 16.6444 41.7296 16.5458C41.9641 16.4472 42.1655 16.3031 42.3158 16.1262L45.9731 12.0042C47.6575 12.4983 49.2491 13.182 50.7017 14.0356L44.6519 18.5915C44.3896 18.8463 44.2509 19.1708 44.2619 19.5035C44.2729 19.8362 44.433 20.1541 44.7118 20.397C44.9906 20.6399 45.3688 20.791 45.7749 20.8217C46.181 20.8524 46.5868 20.7606 46.9156 20.5637L53.2472 15.7975C54.5193 16.8472 55.604 18.0378 56.4694 19.3343L49.7511 22.6608C49.4395 22.815 49.1983 23.0483 49.0646 23.325C48.9308 23.6017 48.9118 23.9065 49.0105 24.1929C49.1092 24.4792 49.3201 24.7313 49.611 24.9105C49.9018 25.0897 50.2566 25.1862 50.6211 25.1853C50.9248 25.1832 51.2223 25.1152 51.4831 24.988L57.7986 21.8522C58.4387 23.4478 58.7596 25.117 58.7492 26.7959V26.7828Z" fill="#652f87
"/>
</svg>
