<svg width="101" height="81" viewBox="0 0 101 81" fill="none" xmlns="http://www.w3.org/2000/svg">
<path d="M61.0753 0.00146056C50.7939 -0.0861898 40.8671 3.77411 33.3228 10.7938C25.7785 17.8134 21.1861 27.4627 20.4836 37.7704L9.18499 37.6607L4.15567 32.5272C3.68815 32.0966 3.07422 31.8623 2.4401 31.8725C1.80597 31.8828 1.19985 32.1367 0.746342 32.5822C0.292837 33.0277 0.0264187 33.6309 0.00186153 34.2677C-0.0226957 34.9045 0.196475 35.5266 0.614312 36.006L4.63182 40.1029L0.921825 43.7612C0.668658 43.985 0.463581 44.2584 0.319131 44.5646C0.17468 44.8708 0.0938908 45.2034 0.0817021 45.542C0.0695134 45.8806 0.126181 46.2182 0.248241 46.5341C0.370301 46.85 0.555188 47.1375 0.791601 47.3791C1.02801 47.6208 1.31098 47.8114 1.62321 47.9394C1.93544 48.0674 2.27037 48.1301 2.60753 48.1236C2.94468 48.1171 3.27698 48.0416 3.5841 47.9017C3.89122 47.7618 4.16672 47.5604 4.39374 47.3098L9.1354 42.6348L20.4539 42.7444C20.8895 50.6306 23.6104 58.2167 28.2816 64.5689C32.9528 70.9212 39.3705 75.7622 46.7447 78.4962C54.1189 81.2302 62.1277 81.7379 69.7853 79.9566C77.4429 78.1754 84.4151 74.1831 89.8436 68.471C95.2721 62.759 98.9201 55.5766 100.338 47.8079C101.757 40.0392 100.883 32.0233 97.8262 24.7469C94.769 17.4705 89.6611 11.2512 83.1314 6.85457C76.6017 2.45792 68.9351 0.0758072 61.0753 0.00146056ZM60.371 76.0277C51.4473 75.9339 42.888 72.4571 36.4062 66.2931C29.9245 60.1291 25.9984 51.7327 25.4137 42.7843L31.683 42.8441C32.3224 50.3494 35.8219 57.3165 41.451 62.2911C47.08 67.2657 54.4036 69.8633 61.893 69.5418C69.3825 69.2203 76.4589 66.0044 81.6452 60.5654C86.8315 55.1265 89.7268 47.8848 89.7268 40.3521C89.7268 32.8194 86.8315 25.5777 81.6452 20.1388C76.4589 14.6998 69.3825 11.4839 61.893 11.1624C54.4036 10.8408 47.08 13.4385 41.451 18.4131C35.8219 23.3877 32.3224 30.3548 31.683 37.8601L25.4237 37.8003C25.9479 30.8961 28.4685 24.2963 32.6756 18.8125C36.8828 13.3286 42.593 9.19974 49.1042 6.93349C55.6154 4.66724 62.6437 4.36242 69.325 6.05651C76.0063 7.75061 82.0493 11.3698 86.711 16.469C91.3727 21.5682 94.4498 27.9252 95.5641 34.7583C96.6783 41.5914 95.7811 48.6028 92.9827 54.9304C90.1843 61.2579 85.6068 66.6258 79.813 70.374C74.0191 74.1222 67.2615 76.0873 60.371 76.0277ZM44.4994 42.9737C45.1245 47.0769 47.2688 50.7916 50.503 53.3741C53.7371 55.9566 57.8226 57.2164 61.9417 56.9014C66.0607 56.5864 69.9094 54.7198 72.7174 51.6752C75.5254 48.6307 77.0856 44.6327 77.0856 40.4817C77.0856 36.3306 75.5254 32.3327 72.7174 29.2881C69.9094 26.2436 66.0607 24.377 61.9417 24.062C57.8226 23.747 53.7371 25.0068 50.503 27.5893C47.2688 30.1718 45.1245 33.8864 44.4994 37.9897L36.6429 37.9099C37.2786 31.7214 40.2548 26.0144 44.957 21.9673C49.6592 17.9202 55.7285 15.842 61.9115 16.1618C68.0946 16.4816 73.9194 19.175 78.1833 23.6858C82.4472 28.1967 84.8246 34.1805 84.8246 40.4019C84.8246 46.6233 82.4472 52.6072 78.1833 57.118C73.9194 61.6289 68.0946 64.3222 61.9115 64.642C55.7285 64.9618 49.6592 62.8836 44.957 58.8365C40.2548 54.7894 37.2786 49.0825 36.6429 42.894L44.4994 42.9737ZM54.0422 47.7883C54.5043 48.2575 55.1312 48.5259 55.7881 48.5359C56.1128 48.5407 56.4353 48.4806 56.7367 48.3591C57.0381 48.2376 57.3125 48.0571 57.5439 47.8281L63.0196 42.4255C63.1364 42.3089 63.2426 42.1821 63.337 42.0467C63.3706 41.9923 63.4005 41.9357 63.4263 41.8772C63.4785 41.7941 63.5249 41.7075 63.5652 41.618C63.6005 41.5415 63.6271 41.4613 63.6446 41.3788L63.714 41.1595C63.7811 40.8307 63.7811 40.4916 63.714 40.1627C63.6954 40.085 63.6723 40.0084 63.6446 39.9334C63.626 39.8524 63.6028 39.7725 63.5751 39.6942C63.5348 39.6047 63.4884 39.5181 63.4362 39.435L63.3469 39.2855C63.2552 39.145 63.1488 39.0146 63.0295 38.8968L57.286 33.0156C57.0629 32.7619 56.7905 32.5568 56.4856 32.4128C56.1807 32.2688 55.8497 32.1891 55.513 32.1784C55.1763 32.1677 54.8409 32.2264 54.5276 32.3507C54.2143 32.4751 53.9296 32.6626 53.691 32.9016C53.4524 33.1407 53.2651 33.4262 53.1404 33.7407C53.0157 34.0552 52.9564 34.392 52.9661 34.7304C52.9757 35.0688 53.0542 35.4016 53.1966 35.7084C53.339 36.0152 53.5424 36.2895 53.7942 36.5144L55.4111 38.0993L49.5882 38.0495C50.1991 35.2884 51.8025 32.851 54.0913 31.2045C56.38 29.558 59.1929 28.8182 61.9909 29.1269C64.7889 29.4357 67.375 30.7713 69.2536 32.8776C71.1322 34.984 72.1711 37.713 72.1711 40.5415C72.1711 43.37 71.1322 46.099 69.2536 48.2054C67.375 50.3117 64.7889 51.6473 61.9909 51.9561C59.1929 52.2648 56.38 51.525 54.0913 49.8785C51.8025 48.232 50.1991 45.7946 49.5882 43.0335H55.3417L54.1315 44.2297C53.8914 44.457 53.699 44.7302 53.5653 45.0332C53.4316 45.3362 53.3594 45.6629 53.3529 45.9943C53.3465 46.3257 53.4059 46.655 53.5276 46.9631C53.6494 47.2711 53.8311 47.5517 54.062 47.7883H54.0422Z" fill="#652f87"/>
</svg>
