<svg width="25" height="24" viewBox="0 0 25 24" fill="none" xmlns="http://www.w3.org/2000/svg">
<path fill-rule="evenodd" clip-rule="evenodd" d="M12.3364 2C9.62053 2 9.27969 2.01188 8.21301 2.06042C7.14842 2.10917 6.42174 2.27771 5.7859 2.52501C5.12819 2.78042 4.57026 3.1221 4.01443 3.67814C3.45817 4.23398 3.1165 4.7919 2.86025 5.44941C2.61233 6.08546 2.44358 6.81234 2.39566 7.87652C2.34795 8.9432 2.33545 9.28424 2.33545 12.0001C2.33545 14.716 2.34753 15.0558 2.39587 16.1224C2.44483 17.187 2.61337 17.9137 2.86045 18.5495C3.11608 19.2073 3.45775 19.7652 4.0138 20.321C4.56943 20.8773 5.12735 21.2198 5.78465 21.4752C6.42091 21.7225 7.14779 21.891 8.21218 21.9398C9.27885 21.9883 9.61948 22.0002 12.3351 22.0002C15.0512 22.0002 15.391 21.9883 16.4577 21.9398C17.5223 21.891 18.2498 21.7225 18.886 21.4752C19.5435 21.2198 20.1006 20.8773 20.6563 20.321C21.2125 19.7652 21.5542 19.2073 21.8104 18.5498C22.0563 17.9137 22.225 17.1868 22.275 16.1226C22.323 15.056 22.3354 14.716 22.3354 12.0001C22.3354 9.28424 22.323 8.9434 22.275 7.87673C22.225 6.81213 22.0563 6.08546 21.8104 5.44962C21.5542 4.7919 21.2125 4.23398 20.6563 3.67814C20.1 3.12189 19.5438 2.78022 18.8854 2.52501C18.2479 2.27771 17.5208 2.10917 16.4562 2.06042C15.3895 2.01188 15.05 2 12.3333 2H12.3364ZM11.4393 3.80207C11.7055 3.80166 12.0026 3.80207 12.3363 3.80207C15.0064 3.80207 15.3228 3.81166 16.3772 3.85957C17.3522 3.90416 17.8814 4.06708 18.2339 4.20395C18.7006 4.38521 19.0333 4.60187 19.3831 4.95188C19.7331 5.30188 19.9498 5.63522 20.1314 6.10189C20.2683 6.45398 20.4314 6.98315 20.4758 7.95816C20.5237 9.01234 20.5341 9.32901 20.5341 11.9978C20.5341 14.6666 20.5237 14.9832 20.4758 16.0374C20.4312 17.0124 20.2683 17.5416 20.1314 17.8937C19.9502 18.3604 19.7331 18.6926 19.3831 19.0424C19.0331 19.3924 18.7008 19.6091 18.2339 19.7904C17.8818 19.9279 17.3522 20.0904 16.3772 20.135C15.323 20.1829 15.0064 20.1933 12.3363 20.1933C9.66611 20.1933 9.34965 20.1829 8.29547 20.135C7.32046 20.09 6.79129 19.927 6.43857 19.7902C5.9719 19.6089 5.63857 19.3922 5.28856 19.0422C4.93856 18.6922 4.72189 18.3597 4.54022 17.8928C4.40334 17.5408 4.24022 17.0116 4.19584 16.0366C4.14793 14.9824 4.13834 14.6657 4.13834 11.9953C4.13834 9.32484 4.14793 9.00984 4.19584 7.95566C4.24043 6.98065 4.40334 6.45148 4.54022 6.09897C4.72147 5.6323 4.93856 5.29896 5.28856 4.94896C5.63857 4.59896 5.9719 4.38229 6.43857 4.20062C6.79108 4.06312 7.32046 3.90062 8.29547 3.85582C9.21798 3.81416 9.57548 3.80166 11.4393 3.79957V3.80207ZM17.6743 5.46251C17.0118 5.46251 16.4743 5.99939 16.4743 6.66211C16.4743 7.32462 17.0118 7.86212 17.6743 7.86212C18.3368 7.86212 18.8743 7.32462 18.8743 6.66211C18.8743 5.9996 18.3368 5.46251 17.6743 5.46251ZM12.3364 6.86461C9.50033 6.86461 7.20093 9.16401 7.20093 12.0001C7.20093 14.8361 9.50033 17.1345 12.3364 17.1345C15.1725 17.1345 17.471 14.8361 17.471 12.0001C17.471 9.16401 15.1725 6.86461 12.3364 6.86461ZM12.3364 8.66671C14.1772 8.66671 15.6697 10.159 15.6697 12.0001C15.6697 13.8409 14.1772 15.3334 12.3364 15.3334C10.4953 15.3334 9.003 13.8409 9.003 12.0001C9.003 10.159 10.4953 8.66671 12.3364 8.66671Z" fill="#D2B3E5"/>
</svg>
