<svg width="1440" height="357" viewBox="0 0 1440 357" fill="none" xmlns="http://www.w3.org/2000/svg">
<g opacity="0.4">
<path d="M744.438 206.703C810.394 203.525 852.754 188.549 839.053 173.252C825.352 157.956 760.778 148.131 694.822 151.309C628.866 154.487 586.506 169.463 600.207 184.759C613.908 200.056 678.483 209.88 744.438 206.703Z" stroke="url(#paint0_linear_91_667)" stroke-width="2" stroke-miterlimit="10"/>
<path d="M625.304 212.356C704.697 224.434 811.278 219.299 863.359 200.887C915.44 182.474 893.3 157.755 813.907 145.676C734.514 133.598 627.933 138.733 575.852 157.145C523.771 175.558 545.911 200.277 625.304 212.356Z" stroke="url(#paint1_linear_91_667)" stroke-width="2" stroke-miterlimit="10"/>
<path d="M767.605 232.566C895.151 226.421 977.068 197.46 950.573 167.879C924.077 138.299 799.202 119.3 671.656 125.445C544.11 131.59 462.192 160.551 488.688 190.132C515.184 219.713 640.059 238.711 767.605 232.566Z" stroke="url(#paint2_linear_91_667)" stroke-width="2" stroke-miterlimit="10"/>
<path d="M780.073 246.486C940.767 238.745 1043.97 202.256 1010.59 164.988C977.211 127.719 819.882 103.783 659.187 111.525C498.493 119.267 395.286 155.755 428.668 193.024C462.049 230.292 619.379 254.228 780.073 246.486Z" stroke="url(#paint3_linear_91_667)" stroke-width="2" stroke-miterlimit="10"/>
<path d="M506.165 254.476C685.862 281.815 927.095 270.193 1044.98 228.518C1162.86 186.842 1112.74 130.895 933.046 103.556C753.349 76.2167 512.116 87.8388 394.235 129.514C276.355 171.19 326.468 227.137 506.165 254.476Z" stroke="url(#paint4_linear_91_667)" stroke-width="2" stroke-miterlimit="10"/>
<path d="M430.544 281.212C673.907 318.237 1000.61 302.497 1160.25 246.056C1319.9 189.615 1252.03 113.845 1008.67 76.8204C765.305 39.7954 438.603 55.5352 278.959 111.976C119.315 168.417 187.182 244.187 430.544 281.212Z" stroke="url(#paint5_linear_91_667)" stroke-width="2" stroke-miterlimit="10"/>
<path d="M367.999 303.324C664.018 348.36 1061.41 329.214 1255.6 260.561C1449.78 191.908 1367.23 99.7442 1071.21 54.708C775.193 9.67184 377.802 28.8173 183.615 97.4706C-10.5716 166.124 71.9799 258.287 367.999 303.324Z" stroke="url(#paint6_linear_91_667)" stroke-width="2" stroke-miterlimit="10"/>
<path d="M326.764 317.902C657.499 368.22 1101.49 346.829 1318.46 270.125C1535.42 193.42 1443.18 90.4477 1112.45 40.1299C781.712 -10.188 337.717 11.2028 120.756 87.9075C-96.2043 164.612 -3.97138 267.584 326.764 317.902Z" stroke="url(#paint7_linear_91_667)" stroke-width="2" stroke-miterlimit="10"/>
<path d="M298.569 327.817C652.953 381.733 1128.7 358.813 1361.17 276.623C1593.64 194.434 1494.82 84.0986 1140.43 30.1828C786.047 -23.7329 310.304 -0.812619 77.8305 81.3768C-154.643 163.566 -55.8156 273.901 298.569 327.817Z" stroke="url(#paint8_linear_91_667)" stroke-width="2" stroke-miterlimit="10"/>
</g>
<defs>
<linearGradient id="paint0_linear_91_667" x1="1407.58" y1="316.447" x2="1296.96" y2="-76.8852" gradientUnits="userSpaceOnUse">
<stop stop-color="#040404" stop-opacity="0"/>
<stop offset="1"/>
</linearGradient>
<linearGradient id="paint1_linear_91_667" x1="1407.58" y1="316.447" x2="1296.96" y2="-76.8852" gradientUnits="userSpaceOnUse">
<stop stop-color="#040404" stop-opacity="0"/>
<stop offset="1"/>
</linearGradient>
<linearGradient id="paint2_linear_91_667" x1="1407.58" y1="316.447" x2="1296.96" y2="-76.8852" gradientUnits="userSpaceOnUse">
<stop stop-color="#040404" stop-opacity="0"/>
<stop offset="1"/>
</linearGradient>
<linearGradient id="paint3_linear_91_667" x1="1407.58" y1="316.447" x2="1296.96" y2="-76.8852" gradientUnits="userSpaceOnUse">
<stop stop-color="#040404" stop-opacity="0"/>
<stop offset="1"/>
</linearGradient>
<linearGradient id="paint4_linear_91_667" x1="1407.58" y1="316.447" x2="1296.96" y2="-76.8852" gradientUnits="userSpaceOnUse">
<stop stop-color="#040404" stop-opacity="0"/>
<stop offset="1"/>
</linearGradient>
<linearGradient id="paint5_linear_91_667" x1="1407.58" y1="316.447" x2="1296.96" y2="-76.8852" gradientUnits="userSpaceOnUse">
<stop stop-color="#040404" stop-opacity="0"/>
<stop offset="1"/>
</linearGradient>
<linearGradient id="paint6_linear_91_667" x1="1407.58" y1="316.447" x2="1296.96" y2="-76.8852" gradientUnits="userSpaceOnUse">
<stop stop-color="#040404" stop-opacity="0"/>
<stop offset="1"/>
</linearGradient>
<linearGradient id="paint7_linear_91_667" x1="1407.58" y1="316.447" x2="1296.96" y2="-76.8852" gradientUnits="userSpaceOnUse">
<stop stop-color="#040404" stop-opacity="0"/>
<stop offset="1"/>
</linearGradient>
<linearGradient id="paint8_linear_91_667" x1="1407.58" y1="316.447" x2="1296.96" y2="-76.8852" gradientUnits="userSpaceOnUse">
<stop stop-color="#040404" stop-opacity="0"/>
<stop offset="1"/>
</linearGradient>
</defs>
</svg>
