<svg width="25" height="24" viewBox="0 0 25 24" fill="none" xmlns="http://www.w3.org/2000/svg">
<path opacity="0.1" fill-rule="evenodd" clip-rule="evenodd" d="M0.212769 12C0.212769 5.37258 5.58535 0 12.2128 0C18.8402 0 24.2128 5.37258 24.2128 12C24.2128 18.6274 18.8402 24 12.2128 24C5.58535 24 0.212769 18.6274 0.212769 12Z" fill="white"/>
<path d="M15.6523 12.9722L13.806 12.049C13.7333 12.0128 13.6523 11.9964 13.5713 12.0015C13.4903 12.0066 13.412 12.0329 13.3444 12.0779L12.4968 12.6433C12.1077 12.4294 11.7875 12.1092 11.5736 11.7202L12.1391 10.8726C12.1841 10.805 12.2104 10.7267 12.2155 10.6457C12.2205 10.5646 12.2041 10.4837 12.1679 10.411L11.2448 8.56467C11.2065 8.4874 11.1473 8.42238 11.074 8.377C11.0007 8.33162 10.9161 8.30769 10.8299 8.30791C10.2178 8.30791 9.63078 8.55107 9.19796 8.98389C8.76515 9.4167 8.52199 10.0037 8.52199 10.6158C8.52352 11.962 9.05895 13.2525 10.0108 14.2044C10.9627 15.1563 12.2533 15.6917 13.5994 15.6932C13.9025 15.6932 14.2026 15.6335 14.4826 15.5176C14.7626 15.4016 15.017 15.2316 15.2313 15.0173C15.4457 14.803 15.6157 14.5485 15.7316 14.2685C15.8476 13.9885 15.9073 13.6884 15.9073 13.3853C15.9074 13.2996 15.8836 13.2155 15.8385 13.1425C15.7935 13.0696 15.729 13.0106 15.6523 12.9722ZM13.5994 14.7701C12.498 14.7689 11.4421 14.3308 10.6633 13.552C9.88445 12.7732 9.44638 11.7172 9.44516 10.6158C9.44507 10.2957 9.55592 9.98538 9.75884 9.73775C9.96176 9.49012 10.2442 9.32045 10.5581 9.25762L11.2205 10.5847L10.6568 11.4236C10.6147 11.4868 10.5888 11.5594 10.5815 11.635C10.5741 11.7106 10.5855 11.7868 10.6147 11.8569C10.9449 12.6418 11.5694 13.2662 12.3543 13.5965C12.4246 13.627 12.5014 13.6394 12.5778 13.6328C12.6541 13.6261 12.7276 13.6006 12.7916 13.5584L13.6346 12.9964L14.9616 13.6588C14.8983 13.9731 14.7279 14.2557 14.4795 14.4583C14.2311 14.661 13.92 14.7712 13.5994 14.7701ZM12.2147 6C11.1787 5.99977 10.1603 6.26777 9.25859 6.7779C8.35691 7.28803 7.60266 8.02292 7.06926 8.91103C6.53586 9.79914 6.24147 10.8102 6.21476 11.8459C6.18805 12.8815 6.42993 13.9064 6.91684 14.8208L6.26197 16.7855C6.20772 16.9481 6.19985 17.1227 6.23923 17.2895C6.27862 17.4564 6.3637 17.609 6.48494 17.7303C6.60619 17.8515 6.7588 17.9366 6.92568 17.976C7.09256 18.0154 7.26711 18.0075 7.42977 17.9533L9.39438 17.2984C10.1991 17.7264 11.0908 17.9655 12.0018 17.9975C12.9127 18.0294 13.819 17.8534 14.6517 17.4829C15.4845 17.1123 16.2219 16.5569 16.808 15.8588C17.3941 15.1607 17.8134 14.3382 18.0341 13.4538C18.2549 12.5695 18.2713 11.6464 18.082 10.7548C17.8928 9.86314 17.5029 9.02633 16.942 8.30787C16.381 7.5894 15.6638 7.00817 14.8447 6.60828C14.0256 6.2084 13.1262 6.00037 12.2147 6ZM12.2147 17.078C11.3221 17.0786 10.4451 16.8435 9.67249 16.3966C9.61592 16.3638 9.55302 16.3434 9.48797 16.3367C9.42292 16.33 9.35719 16.3373 9.29514 16.3579L7.13724 17.078L7.85674 14.9201C7.87748 14.8581 7.88481 14.7924 7.87824 14.7273C7.87168 14.6623 7.85137 14.5994 7.81866 14.5427C7.25897 13.5751 7.03426 12.4498 7.17938 11.3414C7.3245 10.233 7.83135 9.20351 8.62128 8.41257C9.41122 7.62164 10.4401 7.11349 11.5483 6.96697C12.6565 6.82045 13.7821 7.04374 14.7504 7.6022C15.7188 8.16067 16.4758 9.02308 16.904 10.0557C17.3322 11.0883 17.4076 12.2333 17.1186 13.3131C16.8297 14.393 16.1924 15.3473 15.3057 16.028C14.419 16.7087 13.3325 17.0778 12.2147 17.078Z" fill="white"/>
</svg>
