<svg width="25" height="24" viewBox="0 0 25 24" fill="none" xmlns="http://www.w3.org/2000/svg">
<path opacity="0.1" fill-rule="evenodd" clip-rule="evenodd" d="M0.212769 12C0.212769 5.37258 5.58535 0 12.2128 0C18.8402 0 24.2128 5.37258 24.2128 12C24.2128 18.6274 18.8402 24 12.2128 24C5.58535 24 0.212769 18.6274 0.212769 12Z" fill="white"/>
<path d="M15.1529 11.5459L11.9387 9.36409C11.858 9.30927 11.7642 9.27779 11.6673 9.27301C11.5704 9.26823 11.474 9.29033 11.3885 9.33695C11.303 9.38357 11.2315 9.45296 11.1817 9.53772C11.1318 9.62247 11.1056 9.71941 11.1056 9.81818V14.1818C11.1056 14.2806 11.1318 14.3775 11.1817 14.4623C11.2315 14.547 11.303 14.6164 11.3885 14.663C11.474 14.7097 11.5704 14.7318 11.6673 14.727C11.7642 14.7222 11.858 14.6907 11.9387 14.6359L15.1529 12.4541C15.2264 12.4043 15.2867 12.3368 15.3284 12.2576C15.3701 12.1784 15.3919 12.0899 15.3919 12C15.3919 11.9101 15.3701 11.8217 15.3284 11.7424C15.2867 11.6632 15.2264 11.5957 15.1529 11.5459ZM12.1771 13.1625V10.8409L13.89 12L12.1771 13.1625ZM19.8331 8.01273C19.77 7.76137 19.6491 7.5289 19.4804 7.33448C19.3117 7.14006 19.1 6.98927 18.8628 6.89455C16.5672 5.99182 12.9137 6 12.7128 6C12.5119 6 8.8583 5.99182 6.56277 6.89455C6.32556 6.98927 6.11386 7.14006 5.94515 7.33448C5.77644 7.5289 5.65555 7.76137 5.59246 8.01273C5.41902 8.69318 5.21277 9.93682 5.21277 12C5.21277 14.0632 5.41902 15.3068 5.59246 15.9873C5.65546 16.2388 5.77631 16.4714 5.94502 16.6659C6.11374 16.8605 6.32548 17.0113 6.56277 17.1061C8.76188 17.97 12.2038 18 12.6686 18H12.757C13.2217 18 16.6657 17.97 18.8628 17.1061C19.1001 17.0113 19.3118 16.8605 19.4805 16.6659C19.6492 16.4714 19.7701 16.2388 19.8331 15.9873C20.0065 15.3055 20.2128 14.0632 20.2128 12C20.2128 9.93682 20.0065 8.69318 19.8331 8.01273ZM18.7958 15.7173C18.7754 15.8009 18.7358 15.8785 18.6803 15.9435C18.6248 16.0086 18.5549 16.0593 18.4764 16.0916C16.357 16.9248 12.7523 16.9098 12.7175 16.9098H12.7128C12.6766 16.9098 9.0746 16.9234 6.95384 16.0916C6.87534 16.0593 6.80546 16.0086 6.74994 15.9435C6.69442 15.8785 6.65483 15.8009 6.63442 15.7173C6.4717 15.0948 6.2842 13.948 6.2842 12C6.2842 10.052 6.4717 8.90523 6.62973 8.28614C6.64976 8.20199 6.68918 8.1239 6.74472 8.05834C6.80027 7.99277 6.87034 7.94162 6.94915 7.90909C8.9929 7.10523 12.4175 7.09091 12.698 7.09091H12.7161C12.7523 7.09091 16.3576 7.07864 18.475 7.90909C18.5535 7.94135 18.6234 7.99209 18.6789 8.05716C18.7345 8.12222 18.7741 8.19976 18.7945 8.28341C18.9538 8.90523 19.1413 10.052 19.1413 12C19.1413 13.948 18.9538 15.0948 18.7958 15.7139V15.7173Z" fill="white"/>
</svg>
