<svg width="484" height="560" viewBox="0 0 484 560" fill="none" xmlns="http://www.w3.org/2000/svg">
<path d="M245.728 132.484C268.235 139.726 292.972 136.192 310.453 123.621C320.418 116.466 328.934 119.725 332.178 131.934C346.994 187.1 415.687 213.329 464.061 182.292C469.478 178.931 474.691 178.729 479.616 183.045C484.54 187.361 485.148 192.603 482.281 198.295C481.118 200.529 479.74 202.644 478.167 204.61C425.014 271.768 355.901 307.802 270.074 310.93C239.559 312.031 209.854 306.788 179.686 297.316C175.196 308.714 170.996 319.707 166.535 330.627C162.567 340.476 156.18 344.125 148.822 341.026C141.754 338.043 139.741 331.366 143.362 321.908C147.577 310.858 152.052 299.894 156.484 288.481C154.311 287.164 153.587 286.613 152.747 286.208C83.7786 252.597 37.201 199.372 13.0142 126.532C0.862915 89.8605 -2.51163 52.1321 1.77536 13.694C2.65884 5.7862 6.49686 0.253671 14.4046 0.00745838C22.3124 -0.238754 25.4262 5.64137 27.6421 13.1291C30.2346 21.9204 33.6961 31.1461 39.2286 38.2718C60.0698 65.0799 88.4711 77.376 122.028 75.1746C133.354 74.4505 145.274 70.0187 155.339 64.3848C168.78 56.8246 175.833 58.8377 179.483 73.6829C185.276 97.0296 218.688 124.374 245.714 132.47" fill="#E8B63A"/>
<path d="M201.774 246.567L168.796 324.356C146.087 377.895 123.397 431.444 100.726 485.002C99.1139 488.719 97.9283 492.606 97.1921 496.589C95.9539 504.043 97.2992 511.696 101.005 518.281C104.711 524.866 110.555 529.987 117.57 532.797C124.461 535.545 132.082 535.869 139.182 533.717C146.283 531.564 152.44 527.062 156.645 520.949C159.933 516.069 162.134 510.464 164.799 505.177C168.145 498.544 173.59 496.14 180.339 498.805C187.089 501.47 189.218 507.321 187.436 514.2C186.32 517.784 184.906 521.267 183.207 524.614C169.839 554.304 136.745 567.585 107.258 555.158C100.235 552.235 93.8613 547.948 88.5062 542.546C83.151 537.143 78.9206 530.732 76.0597 523.683C73.1988 516.635 71.7643 509.089 71.8391 501.482C71.914 493.876 73.4967 486.359 76.4958 479.368C106.606 407.257 137.18 335.334 167.565 263.324C171.302 254.49 175.048 245.65 178.804 236.806L201.774 246.567Z" fill="#E8B63A"/>
</svg>
